<?xml version="1.0" encoding="UTF-8" standalone="no"?>
<!DOCTYPE svg PUBLIC "-//W3C//DTD SVG 1.1//EN" "http://www.w3.org/Graphics/SVG/1.1/DTD/svg11.dtd">
<svg xmlns="http://www.w3.org/2000/svg" version="1.1" viewBox="0.00 0.00 466.00 82.00">
<g stroke-width="2.00" fill="none" stroke-linecap="butt">
<path stroke="#868686" vector-effect="non-scaling-stroke" d="
  M 25.44 0.00
  Q 16.34 8.82 10.72 22.17
  Q 1.59 43.84 0.38 63.76
  Q 0.28 65.29 1.78 70.34
  C 4.31 78.88 11.85 71.52 14.71 68.21
  Q 16.43 66.21 20.82 60.75
  Q 22.11 59.14 21.72 61.17
  Q 20.75 66.14 20.56 72.00
  Q 20.38 77.29 22.62 82.00"
/>
<path stroke="#868686" vector-effect="non-scaling-stroke" d="
  M 29.50 0.00
  Q 31.65 1.36 33.06 3.31
  A 1.43 1.42 56.9 0 0 34.93 3.71
  L 40.00 0.79
  A 0.60 0.59 35.4 0 1 40.43 0.72
  C 44.43 1.59 46.18 6.12 46.92 9.76
  Q 46.99 10.14 47.34 10.30
  L 54.52 13.69
  Q 54.95 13.89 55.42 13.83
  C 62.92 12.89 64.07 19.02 64.92 25.22
  Q 64.99 25.78 65.55 25.75
  Q 70.47 25.54 72.98 31.47
  Q 73.59 32.92 74.74 32.17
  Q 74.92 32.05 75.60 32.08
  A 1.45 1.42 -22.0 0 1 76.47 32.44
  Q 79.78 35.41 80.02 38.75
  Q 80.22 41.57 79.36 51.05
  Q 79.31 51.63 79.74 51.25
  Q 81.76 49.45 84.12 46.87
  Q 85.16 45.73 86.27 45.55
  Q 88.14 45.25 87.10 46.84
  Q 78.44 60.08 82.71 75.41
  A 0.42 0.40 -83.9 0 1 82.13 75.90
  L 81.73 75.67
  A 2.20 0.94 20.9 0 1 80.62 74.60
  Q 77.44 63.98 81.52 53.80
  Q 81.68 53.41 81.40 53.13
  Q 80.99 52.73 80.63 53.17
  Q 76.95 57.72 73.51 62.75
  Q 71.33 65.93 66.79 70.05
  A 0.61 0.58 -19.0 0 1 65.77 69.59
  L 65.85 68.97
  A 0.44 0.01 -83.1 0 1 65.91 68.55
  Q 68.27 65.57 71.92 61.18
  C 77.63 54.34 78.40 46.90 78.12 38.33
  A 4.66 4.66 0.0 0 0 76.77 35.20
  L 75.64 34.08
  Q 74.21 32.65 74.08 34.67
  C 73.85 38.25 74.15 43.66 73.46 47.47
  Q 71.98 55.57 67.15 62.19
  Q 64.16 66.30 62.63 67.88
  C 60.91 69.65 55.43 73.51 52.72 72.57
  Q 52.20 72.39 51.71 72.64
  Q 50.75 73.14 49.56 74.57
  Q 46.88 77.78 41.66 81.20
  Q 41.05 81.60 41.14 80.87
  Q 41.16 80.73 41.16 80.59
  Q 41.16 80.07 40.68 79.87
  Q 39.07 79.21 38.22 78.07
  Q 37.90 77.63 38.13 77.14
  L 38.29 76.80
  Q 38.57 76.21 37.98 76.49
  C 35.59 77.63 32.71 80.92 30.37 77.86
  Q 30.01 77.40 29.60 77.81
  L 25.37 82.00"
/>
<path stroke="#868686" vector-effect="non-scaling-stroke" d="
  M 20.71 25.30
  Q 20.89 25.05 21.26 24.25
  Q 24.74 16.73 31.16 8.41
  C 33.48 5.39 31.20 3.96 29.16 2.04
  A 1.97 1.96 47.8 0 0 26.62 1.91
  C 19.93 7.05 15.58 15.35 12.22 23.22
  Q 3.52 43.65 2.31 66.46
  A 0.92 0.91 22.5 0 0 2.61 67.18
  Q 3.32 67.83 3.63 66.74
  Q 9.81 45.07 20.16 26.06
  Q 20.18 26.02 20.71 25.30"
/>
<path stroke="#868686" vector-effect="non-scaling-stroke" d="
  M 36.23 20.64
  Q 36.16 21.24 36.16 21.35
  Q 36.07 22.50 36.80 21.62
  Q 39.43 18.49 44.35 12.37
  Q 45.54 10.89 45.31 9.97
  Q 44.54 6.98 42.56 4.47
  C 40.47 1.81 38.16 3.84 36.15 5.38
  Q 34.79 6.42 35.00 7.50
  Q 36.74 16.25 36.23 20.64"
/>
<path stroke="#868686" vector-effect="non-scaling-stroke" d="
  M 30.15 12.68
  C 19.85 28.89 10.43 48.09 6.14 66.17
  A 0.96 0.96 0.0 0 0 6.44 67.11
  C 7.77 68.29 9.29 68.60 10.95 67.35
  Q 17.17 62.67 21.63 55.83
  Q 23.45 53.04 25.17 47.42
  Q 28.36 37.04 33.86 27.16
  C 35.05 25.02 35.03 23.44 34.80 21.24
  Q 33.98 13.27 33.74 9.61
  A 0.44 0.43 -22.0 0 0 33.02 9.31
  Q 31.43 10.66 30.15 12.68"
/>
<path stroke="#868686" vector-effect="non-scaling-stroke" d="
  M 47.72 15.51
  Q 47.88 17.19 47.99 18.22
  Q 48.04 18.74 48.48 18.48
  Q 50.34 17.40 51.84 15.84
  Q 52.19 15.48 52.15 15.07
  Q 52.10 14.66 51.69 14.37
  Q 49.92 13.14 47.89 12.44
  Q 47.41 12.27 47.45 12.79
  Q 47.55 13.82 47.72 15.51"
/>
<path stroke="#868686" vector-effect="non-scaling-stroke" d="
  M 31.53 44.59
  Q 29.71 47.99 26.85 52.61
  C 23.44 58.10 22.98 64.81 22.59 71.55
  Q 22.29 76.52 24.17 80.25
  A 0.42 0.42 0.0 0 0 24.87 80.33
  L 28.10 76.42
  A 1.06 0.93 -32.2 0 0 28.34 75.62
  Q 27.30 68.95 28.33 61.78
  Q 31.30 41.05 44.05 24.28
  C 46.24 21.39 45.89 18.55 45.89 14.80
  A 0.28 0.28 0.0 0 0 45.43 14.59
  C 42.58 17.14 36.50 24.30 36.18 27.99
  Q 35.38 37.38 31.53 44.59"
/>
<path stroke="#868686" vector-effect="non-scaling-stroke" d="
  M 55.83 33.99
  Q 55.82 34.14 55.93 34.02
  L 63.05 26.53
  A 0.64 0.53 66.3 0 0 63.19 26.04
  C 62.61 21.41 61.70 13.90 55.49 15.80
  Q 54.94 15.97 55.04 16.53
  Q 56.51 24.46 55.83 33.99"
/>
<path stroke="#868686" vector-effect="non-scaling-stroke" d="
  M 53.57 18.61
  Q 53.43 17.25 52.34 18.08
  L 48.41 21.09
  A 1.28 1.26 77.7 0 0 47.95 21.82
  Q 47.40 24.42 47.36 25.22
  Q 46.21 48.65 35.30 68.60
  Q 32.80 73.17 31.10 76.11
  A 0.72 0.71 29.2 0 0 31.38 77.09
  Q 31.94 77.39 32.92 77.06
  Q 38.80 75.07 39.94 69.10
  Q 40.82 64.49 40.84 64.45
  Q 45.05 50.59 52.90 38.91
  Q 54.09 37.15 54.12 36.19
  Q 54.44 26.71 53.57 18.61"
/>
<path stroke="#868686" vector-effect="non-scaling-stroke" d="
  M 31.34 72.32
  Q 43.83 50.98 45.45 26.49
  Q 45.52 25.40 44.86 26.27
  Q 32.32 42.94 30.00 64.06
  Q 29.49 68.70 30.10 72.86
  Q 30.26 73.92 30.92 73.01
  Q 31.01 72.87 31.34 72.32"
/>
<path stroke="#868686" vector-effect="non-scaling-stroke" d="
  M 63.82 44.95
  Q 66.66 40.65 70.57 36.15
  C 72.79 33.59 70.14 29.27 67.86 27.72
  A 1.64 1.63 -73.7 0 0 65.31 29.12
  Q 65.49 36.26 63.62 44.86
  Q 63.50 45.43 63.82 44.95"
/>
<path stroke="#868686" vector-effect="non-scaling-stroke" d="
  M 63.74 29.49
  Q 63.77 29.14 63.49 29.34
  Q 59.12 32.54 56.79 36.55
  Q 55.80 38.26 54.49 44.68
  Q 52.55 54.20 47.89 62.68
  C 45.83 66.43 42.07 71.06 40.28 75.03
  Q 39.57 76.61 40.60 78.18
  Q 40.88 78.60 41.37 78.51
  C 46.06 77.67 50.78 70.68 52.67 66.67
  Q 59.19 52.87 60.32 50.42
  Q 61.68 47.46 62.07 44.12
  Q 63.69 30.09 63.74 29.49"
/>
<path stroke="#868686" vector-effect="non-scaling-stroke" d="
  M 32.40 33.45
  L 26.97 47.37
  A 0.12 0.12 0.0 0 0 27.04 47.53
  L 27.07 47.54
  A 7.41 1.17 -68.7 0 0 30.85 41.06
  L 30.98 40.72
  A 7.41 1.17 -68.7 0 0 32.58 33.39
  L 32.55 33.38
  A 0.12 0.12 0.0 0 0 32.40 33.45"
/>
<path stroke="#868686" vector-effect="non-scaling-stroke" d="
  M 53.53 70.48
  A 0.47 0.45 34.7 0 0 53.62 70.92
  Q 53.86 71.19 54.28 71.03
  Q 57.74 69.69 60.69 66.90
  Q 73.13 55.11 72.00 38.34
  Q 71.92 37.18 71.19 38.09
  Q 68.27 41.71 65.98 45.20
  C 62.73 50.15 60.87 54.86 57.51 62.15
  C 56.54 64.26 54.32 67.76 53.53 70.48"
/>
<path stroke="#868686" vector-effect="non-scaling-stroke" d="
  M 46.41 54.87
  C 44.51 59.22 42.62 63.59 42.18 67.92
  Q 42.10 68.71 42.51 68.04
  Q 46.83 60.95 48.99 56.00
  Q 51.15 51.05 53.40 43.06
  Q 53.62 42.30 53.10 42.89
  C 50.22 46.16 48.31 50.53 46.41 54.87"
/>
<path stroke="#868686" vector-effect="non-scaling-stroke" d="
  M 8.67 70.94
  L 4.23 67.66
  A 0.10 0.10 0.0 0 0 4.09 67.68
  L 4.04 67.74
  A 2.79 2.54 36.5 0 0 4.77 71.44
  L 4.89 71.52
  A 2.79 2.54 36.5 0 0 8.64 71.14
  L 8.69 71.08
  A 0.10 0.10 0.0 0 0 8.67 70.94"
/>
<path stroke="#868686" vector-effect="non-scaling-stroke" d="
  M 111.97 20.10
  C 105.36 17.78 108.14 10.69 114.49 11.94
  C 117.68 12.57 117.64 16.92 121.42 15.87
  Q 121.91 15.73 121.81 15.23
  C 119.55 4.24 102.10 8.04 104.94 17.53
  Q 106.17 21.61 109.01 22.77
  C 113.54 24.61 120.62 26.06 118.56 30.93
  Q 116.89 34.87 112.18 33.86
  Q 109.68 33.32 107.22 29.87
  Q 106.88 29.40 106.28 29.16
  Q 105.37 28.82 104.93 29.03
  A 1.60 1.55 65.4 0 0 104.21 31.07
  Q 106.46 36.37 112.06 37.18
  C 116.77 37.87 121.51 35.68 122.58 30.79
  C 124.12 23.75 117.00 21.86 111.97 20.10"
/>
<path stroke="#868686" vector-effect="non-scaling-stroke" d="
  M 138.91 16.90
  C 134.07 16.82 130.57 17.28 127.54 21.55
  Q 125.18 24.86 126.66 30.11
  Q 126.82 30.67 128.63 33.86
  Q 128.87 34.29 128.87 34.78
  L 128.87 36.83
  A 1.40 1.39 -7.1 0 0 130.61 38.18
  Q 131.59 37.93 132.52 37.35
  Q 132.96 37.07 133.47 37.10
  C 140.34 37.56 146.44 34.52 146.57 27.15
  C 146.63 23.66 144.33 20.15 142.24 15.98
  A 1.03 1.03 0.0 0 0 140.59 15.71
  L 139.74 16.56
  Q 139.39 16.91 138.91 16.90"
/>
<path stroke="#868686" vector-effect="non-scaling-stroke" d="
  M 154.74 18.57
  L 153.45 17.27
  A 1.18 1.18 0.0 0 0 151.44 18.11
  L 151.44 35.70
  A 1.35 1.34 -90.0 0 0 152.78 37.05
  L 153.84 37.05
  Q 154.95 37.05 154.94 35.94
  Q 154.92 33.30 154.96 30.34
  C 155.03 24.79 154.50 21.22 160.76 20.19
  Q 162.33 19.93 161.94 18.20
  Q 161.53 16.34 159.74 17.03
  L 155.44 18.71
  Q 155.04 18.86 154.74 18.57"
/>
<path stroke="#868686" vector-effect="non-scaling-stroke" d="
  M 167.70 27.90
  L 181.86 27.90
  Q 183.49 27.90 183.39 26.28
  C 182.97 19.57 177.00 15.25 170.28 17.33
  C 160.57 20.34 161.83 35.97 172.31 37.15
  Q 179.09 37.92 182.55 31.25
  Q 183.07 30.25 182.05 30.08
  Q 181.96 30.07 181.36 30.48
  Q 180.09 31.35 177.96 32.76
  C 173.39 35.77 168.65 34.21 167.06 28.75
  Q 166.82 27.90 167.70 27.90"
/>
<path stroke="#868686" vector-effect="non-scaling-stroke" d="
  M 191.48 18.42
  Q 190.88 18.16 190.59 17.89
  Q 187.99 15.52 187.98 18.75
  L 187.93 35.82
  Q 187.92 37.01 189.12 37.01
  L 190.38 37.01
  Q 191.40 37.01 191.38 35.99
  Q 191.29 31.72 191.43 27.82
  C 191.59 23.36 192.62 19.83 197.52 19.76
  C 200.70 19.71 201.77 23.16 201.80 25.76
  Q 201.85 30.34 201.78 36.26
  A 0.82 0.82 0.0 0 0 202.60 37.09
  L 204.11 37.09
  Q 204.86 37.09 204.89 36.34
  C 205.07 31.24 205.91 23.92 203.90 20.27
  C 201.18 15.31 196.57 16.90 192.25 18.45
  Q 191.86 18.59 191.48 18.42"
/>
<path stroke="#868686" vector-effect="non-scaling-stroke" d="
  M 217.07 19.36
  Q 218.63 19.75 221.28 22.32
  Q 221.63 22.67 222.04 22.81
  Q 222.70 23.05 222.98 23.01
  A 1.60 1.27 67.7 0 0 223.65 20.71
  Q 220.89 16.14 215.67 16.91
  C 210.12 17.72 207.48 24.46 213.48 27.14
  Q 213.65 27.22 219.53 29.47
  Q 221.96 30.40 220.72 32.97
  Q 220.70 33.02 220.66 33.06
  Q 218.75 35.26 216.35 34.38
  Q 213.95 33.50 211.04 30.63
  Q 210.16 29.76 209.84 30.95
  Q 209.65 31.69 209.84 32.72
  Q 210.11 34.17 211.30 35.06
  Q 216.18 38.70 220.97 36.74
  C 224.26 35.39 226.29 31.02 223.63 27.98
  C 221.51 25.54 218.10 25.34 214.77 24.13
  Q 212.62 23.35 213.60 21.28
  L 213.77 20.91
  Q 214.78 18.77 217.07 19.36"
/>
<path stroke="#868686" vector-effect="non-scaling-stroke" d="
  M 231.98 27.88
  L 246.14 27.88
  Q 247.77 27.88 247.67 26.26
  C 247.25 19.54 241.28 15.22 234.56 17.31
  C 224.85 20.32 226.11 35.95 236.59 37.13
  Q 243.37 37.90 246.83 31.23
  Q 247.35 30.23 246.33 30.06
  Q 246.24 30.05 245.64 30.46
  Q 244.37 31.33 242.24 32.74
  C 237.67 35.75 232.93 34.19 231.34 28.73
  Q 231.10 27.88 231.98 27.88"
/>
<path stroke="#868686" vector-effect="non-scaling-stroke" d="
  M 255.64 18.45
  Q 255.04 18.20 254.75 17.93
  Q 252.14 15.59 252.15 18.81
  L 252.23 35.83
  Q 252.23 37.01 253.43 37.00
  L 254.68 36.99
  Q 255.70 36.99 255.67 35.97
  Q 255.55 31.71 255.66 27.82
  C 255.78 23.38 256.78 19.85 261.67 19.74
  C 264.84 19.67 265.93 23.10 265.98 25.69
  Q 266.07 30.26 266.04 36.16
  A 0.82 0.82 0.0 0 0 266.87 36.98
  L 268.37 36.97
  Q 269.12 36.96 269.14 36.22
  C 269.28 31.13 270.07 23.83 268.03 20.20
  C 265.28 15.28 260.70 16.90 256.41 18.48
  Q 256.02 18.62 255.64 18.45"
/>
<path stroke="#868686" vector-effect="non-scaling-stroke" d="
  M 111.30 64.73
  Q 114.36 64.75 114.87 64.81
  A 1.50 1.50 0.0 0 1 116.06 65.68
  C 116.44 66.53 117.99 70.70 119.89 71.59
  A 0.31 0.31 0.0 0 0 120.31 71.20
  Q 116.13 59.53 112.09 50.46
  Q 111.89 50.02 111.43 50.02
  Q 110.96 50.02 110.76 50.45
  Q 106.56 59.45 102.17 71.04
  A 0.31 0.31 0.0 0 0 102.59 71.44
  C 104.50 70.58 106.13 66.44 106.52 65.60
  A 1.50 1.50 0.0 0 1 107.73 64.75
  Q 108.24 64.70 111.30 64.73"
/>
<path stroke="#868686" vector-effect="non-scaling-stroke" d="
  M 135.69 55.31
  Q 136.06 53.12 137.62 51.87
  Q 139.21 50.60 137.18 50.64
  C 134.46 50.70 134.17 53.17 133.75 55.23
  Q 133.66 55.67 133.25 55.83
  L 131.55 56.49
  Q 131.36 56.57 131.36 56.77
  L 131.36 57.20
  A 0.63 0.63 0.0 0 0 131.99 57.83
  L 133.20 57.83
  Q 133.76 57.83 133.76 58.38
  L 133.76 69.36
  A 1.80 1.79 -84.1 0 0 135.18 71.12
  L 135.47 71.18
  A 0.59 0.59 0.0 0 0 136.17 70.49
  Q 134.94 64.63 135.87 58.71
  Q 135.95 58.21 136.30 57.86
  L 137.45 56.71
  Q 138.03 56.13 137.21 56.08
  L 136.24 56.01
  Q 135.57 55.97 135.69 55.31"
/>
<path stroke="#868686" vector-effect="non-scaling-stroke" d="
  M 122.9423 51.7279
  A 0.90 0.90 0.0 0 0 122.0298 50.8406
  L 121.9698 50.8414
  A 0.90 0.90 0.0 0 0 121.0825 51.7539
  L 121.3377 70.0321
  A 0.90 0.90 0.0 0 0 122.2502 70.9194
  L 122.3102 70.9186
  A 0.90 0.90 0.0 0 0 123.1975 70.0061
  L 122.9423 51.7279"
/>
<path stroke="#868686" vector-effect="non-scaling-stroke" d="
  M 370.00 69.44
  Q 369.89 70.11 370.26 70.49
  A 0.57 0.57 0.0 0 0 371.17 70.39
  Q 371.28 70.20 371.28 70.04
  Q 371.61 61.60 371.22 51.53
  Q 371.18 50.64 370.22 50.87
  L 369.94 50.94
  A 0.69 0.64 85.6 0 0 369.45 51.56
  Q 369.25 54.39 370.07 57.57
  Q 370.18 58.01 369.79 57.77
  Q 361.88 52.99 358.45 60.35
  Q 357.62 62.13 357.89 65.10
  Q 358.11 67.63 359.60 69.20
  Q 363.86 73.69 369.53 69.16
  Q 370.12 68.69 370.00 69.44"
/>
<path stroke="#868686" vector-effect="non-scaling-stroke" d="
  M 283.16 57.91
  Q 282.70 64.98 283.28 68.29
  Q 283.73 70.89 286.83 71.51
  Q 287.42 71.63 287.22 71.06
  Q 286.95 70.33 286.23 69.15
  C 284.60 66.47 284.73 62.14 284.96 58.28
  Q 284.99 57.77 285.50 57.70
  Q 287.68 57.41 288.44 57.06
  Q 289.18 56.72 288.40 56.48
  Q 287.22 56.10 285.55 56.23
  A 0.45 0.45 0.0 0 1 285.07 55.78
  L 285.07 52.91
  A 0.88 0.88 0.0 0 0 284.19 52.03
  L 283.80 52.03
  Q 282.98 52.03 282.98 52.85
  L 282.98 55.63
  A 0.53 0.52 85.5 0 1 282.54 56.15
  L 280.33 56.49
  Q 279.85 56.57 279.85 56.08
  L 279.85 51.78
  Q 279.85 51.12 279.20 51.08
  L 278.86 51.06
  Q 278.03 51.01 278.03 51.84
  L 278.03 70.56
  Q 278.03 71.22 278.68 71.12
  L 279.36 71.01
  Q 279.90 70.93 279.90 70.38
  L 279.90 57.59
  Q 279.90 57.39 280.10 57.41
  L 282.87 57.59
  Q 283.18 57.61 283.16 57.91"
/>
<path stroke="#868686" vector-effect="non-scaling-stroke" d="
  M 390.39 57.01
  A 0.31 0.31 0.0 0 1 389.96 56.78
  L 389.11 51.27
  Q 389.06 50.98 388.76 50.98
  L 388.51 50.98
  Q 388.17 50.98 388.17 51.31
  L 388.17 69.61
  Q 388.17 69.88 387.91 69.97
  Q 387.79 70.01 387.66 70.05
  Q 386.91 70.28 387.57 70.70
  Q 388.31 71.17 389.08 70.58
  A 1.96 1.41 77.9 0 0 389.68 69.21
  L 389.94 61.13
  Q 390.05 57.54 393.58 57.47
  Q 393.69 57.47 393.84 57.47
  Q 397.49 57.36 397.63 60.96
  L 397.98 70.22
  A 0.88 0.88 0.0 0 0 398.86 71.07
  L 399.38 71.07
  Q 400.08 71.07 400.01 70.37
  Q 399.63 66.66 399.70 61.80
  Q 399.73 59.22 397.31 56.59
  A 1.32 1.32 0.0 0 0 396.47 56.17
  Q 393.01 55.83 390.39 57.01"
/>
<path stroke="#868686" vector-effect="non-scaling-stroke" d="
  M 202.14 63.20
  A 0.49 0.48 46.6 0 1 203.10 63.23
  Q 203.66 67.73 206.70 70.51
  C 209.39 72.98 212.78 70.45 215.42 70.11
  Q 215.94 70.04 216.01 69.53
  Q 216.68 64.86 216.31 62.50
  Q 215.78 59.05 216.22 57.05
  C 216.62 55.20 215.96 53.70 215.84 51.70
  Q 215.81 51.18 215.29 51.26
  L 214.66 51.36
  Q 214.21 51.43 214.28 51.88
  L 214.94 56.13
  Q 215.18 57.67 213.77 57.02
  Q 206.19 53.52 203.96 60.91
  Q 203.67 61.89 202.74 61.48
  A 0.84 0.80 -87.4 0 1 202.28 60.95
  C 201.65 58.63 199.87 56.16 197.18 55.85
  C 189.99 55.02 187.71 65.01 191.67 69.52
  C 195.13 73.45 200.46 71.28 202.21 67.01
  Q 202.40 66.54 202.31 66.04
  Q 201.97 64.15 202.14 63.20"
/>
<path stroke="#868686" vector-effect="non-scaling-stroke" d="
  M 217.06 51.61
  Q 216.92 52.22 219.92 53.12
  Q 220.34 53.25 220.63 53.13
  Q 221.05 52.96 221.15 52.54
  Q 221.25 52.11 220.94 51.77
  Q 220.73 51.54 220.29 51.48
  Q 217.20 50.99 217.06 51.61"
/>
<path stroke="#868686" vector-effect="non-scaling-stroke" d="
  M 381.75 58.27
  C 381.33 61.20 380.90 66.57 382.14 69.75
  C 382.84 71.55 385.54 71.37 386.77 70.79
  Q 387.41 70.49 386.71 70.37
  Q 384.19 69.96 383.60 67.89
  Q 383.48 67.46 383.30 64.44
  Q 383.11 61.08 383.27 58.27
  A 0.92 0.91 4.8 0 1 384.28 57.42
  Q 385.86 57.60 386.85 57.33
  Q 387.61 57.13 386.93 56.75
  Q 385.88 56.18 384.37 56.28
  Q 382.93 56.38 383.18 55.13
  L 383.64 52.82
  Q 383.80 52.02 382.98 52.02
  L 382.56 52.02
  Q 381.88 52.02 381.81 52.70
  L 381.59 55.03
  Q 381.46 56.46 380.01 56.28
  Q 379.04 56.17 378.92 57.00
  Q 378.83 57.71 379.55 57.71
  L 381.27 57.71
  Q 381.83 57.71 381.75 58.27"
/>
<path stroke="#868686" vector-effect="non-scaling-stroke" d="
  M 445.90 55.48
  L 445.90 52.50
  Q 445.90 52.13 445.53 52.13
  L 444.97 52.13
  A 0.64 0.64 0.0 0 0 444.33 52.77
  L 444.33 55.52
  Q 444.33 56.00 443.86 56.07
  L 436.68 57.19
  A 0.68 0.67 -0.6 0 0 436.12 57.76
  Q 435.21 63.79 435.87 70.63
  Q 435.93 71.24 436.50 71.02
  L 437.06 70.80
  A 0.90 0.89 79.6 0 0 437.63 69.96
  L 437.63 62.28
  Q 437.63 59.15 440.58 58.10
  L 441.64 57.72
  Q 444.60 56.68 444.31 59.85
  Q 443.97 63.71 444.37 67.96
  Q 444.73 71.74 448.92 71.09
  Q 449.33 71.03 449.33 70.62
  L 449.33 70.16
  Q 449.33 69.80 448.98 69.91
  C 445.02 71.16 445.95 61.92 445.91 58.78
  Q 445.89 57.40 447.27 57.40
  L 448.33 57.40
  A 2.04 2.04 0.0 0 1 450.37 59.52
  C 450.16 65.69 458.98 62.47 459.93 66.55
  A 2.05 2.04 -29.6 0 1 459.41 68.43
  C 455.85 72.11 453.62 69.60 451.39 66.69
  Q 450.14 65.05 450.14 67.12
  L 450.14 68.06
  Q 450.14 68.61 450.60 68.92
  C 453.80 71.02 455.63 73.21 459.39 70.26
  C 461.33 68.74 463.17 66.78 460.60 64.68
  Q 458.51 62.97 455.58 62.39
  C 453.47 61.97 451.50 61.12 451.99 58.76
  A 1.03 1.00 -7.4 0 1 452.55 58.05
  Q 455.69 56.59 458.18 58.03
  A 1.63 1.61 -88.3 0 1 458.84 58.74
  Q 459.76 60.61 460.29 61.28
  Q 461.17 62.37 461.09 61.03
  Q 460.84 56.76 456.75 56.16
  Q 452.99 55.60 451.03 57.73
  Q 450.64 58.15 450.27 57.71
  Q 448.79 55.96 446.50 56.05
  Q 445.90 56.08 445.90 55.48"
/>
<path stroke="#868686" vector-effect="non-scaling-stroke" d="
  M 144.5902 71.4693
  A 7.83 7.13 93.0 0 0 152.1202 64.0232
  A 7.83 7.13 93.0 0 0 145.4098 55.8307
  A 7.83 7.13 93.0 0 0 137.8798 63.2768
  A 7.83 7.13 93.0 0 0 144.5902 71.4693"
/>
<path stroke="#868686" vector-effect="non-scaling-stroke" d="
  M 155.21 57.29
  Q 154.65 56.71 153.96 56.64
  A 0.59 0.59 0.0 0 0 153.32 57.34
  Q 154.44 63.04 153.59 69.99
  Q 153.56 70.22 153.71 70.38
  Q 155.09 71.92 155.50 68.13
  Q 155.63 67.00 155.64 66.75
  L 155.86 60.18
  A 1.30 1.29 78.9 0 1 156.61 59.05
  L 160.50 57.25
  A 0.77 0.36 -82.4 0 0 160.82 56.75
  Q 160.86 56.63 160.83 56.50
  Q 160.74 56.04 160.28 56.09
  Q 158.61 56.29 156.86 57.46
  A 1.31 1.31 0.0 0 1 155.21 57.29"
/>
<path stroke="#868686" vector-effect="non-scaling-stroke" d="
  M 178.16 57.84
  C 175.84 55.06 173.49 56.22 169.48 56.63
  A 1.41 1.40 87.3 0 0 168.21 58.03
  L 168.21 70.65
  Q 168.21 71.08 168.64 71.08
  L 168.94 71.08
  Q 169.56 71.08 169.59 70.46
  L 170.06 60.96
  Q 170.23 57.47 173.82 57.53
  Q 173.88 57.53 173.96 57.53
  Q 177.32 57.57 177.25 61.00
  L 177.07 70.26
  A 0.75 0.75 0.0 0 0 177.77 71.03
  L 178.16 71.05
  Q 178.78 71.10 178.81 70.47
  L 179.34 61.11
  Q 179.51 57.97 182.59 57.42
  L 182.83 57.37
  Q 185.79 56.99 185.91 59.97
  L 186.35 70.27
  Q 186.39 71.08 187.21 71.14
  L 187.70 71.17
  Q 188.28 71.21 188.20 70.63
  Q 187.62 66.70 187.76 62.04
  C 187.89 57.96 186.92 55.37 182.29 55.98
  Q 180.61 56.20 179.24 57.84
  Q 178.70 58.49 178.16 57.84"
/>
<path stroke="#868686" vector-effect="non-scaling-stroke" d="
  M 232.23 60.91
  Q 232.48 62.46 230.91 62.38
  Q 226.70 62.15 222.52 64.31
  Q 222.07 64.54 221.98 65.04
  Q 221.63 67.10 222.36 68.12
  C 224.73 71.44 227.48 72.84 231.07 70.07
  A 1.59 1.59 0.0 0 1 233.38 70.46
  Q 233.70 70.95 233.98 71.09
  Q 235.45 71.81 235.03 70.12
  C 234.82 69.25 234.25 68.19 234.25 66.90
  C 234.25 62.60 235.32 55.88 229.27 55.81
  Q 224.46 55.75 222.90 60.13
  Q 222.55 61.12 223.52 60.71
  C 226.48 59.45 225.47 56.67 230.17 57.26
  Q 231.69 57.46 231.93 58.97
  L 232.23 60.91"
/>
<path stroke="#868686" vector-effect="non-scaling-stroke" d="
  M 249.47 63.72
  C 249.56 69.80 255.80 74.16 261.15 69.10
  Q 262.56 67.77 262.56 65.53
  Q 262.56 64.97 262.07 65.35
  C 260.80 66.30 259.27 69.42 257.18 69.79
  C 253.53 70.43 251.50 66.99 251.45 63.69
  C 251.40 60.39 253.31 56.88 256.98 57.41
  C 259.09 57.71 260.71 60.78 262.01 61.69
  Q 262.51 62.06 262.50 61.50
  Q 262.43 59.26 260.98 57.97
  C 255.47 53.08 249.37 57.64 249.47 63.72"
/>
<path stroke="#868686" vector-effect="non-scaling-stroke" d="
  M 303.98 57.95
  Q 303.61 58.09 303.61 58.49
  L 303.61 70.31
  Q 303.61 71.13 304.43 71.13
  L 304.73 71.13
  A 0.55 0.55 0.0 0 0 305.28 70.56
  C 305.19 67.17 304.76 63.92 306.03 60.52
  C 306.57 59.05 308.22 58.17 309.61 57.04
  Q 309.78 56.90 309.87 56.70
  Q 310.06 56.30 309.51 56.01
  A 0.63 0.62 48.1 0 0 309.02 55.98
  L 303.98 57.95"
/>
<path stroke="#868686" vector-effect="non-scaling-stroke" d="
  M 316.1721 71.6505
  A 7.94 6.65 92.8 0 0 323.2021 64.0449
  A 7.94 6.65 92.8 0 0 316.9479 55.7895
  A 7.94 6.65 92.8 0 0 309.9179 63.3951
  A 7.94 6.65 92.8 0 0 316.1721 71.6505"
/>
<path stroke="#868686" vector-effect="non-scaling-stroke" d="
  M 338.82 62.55
  C 335.69 62.23 330.13 62.71 330.01 66.91
  Q 329.96 68.80 331.55 70.09
  C 334.98 72.85 337.90 70.65 341.34 69.62
  Q 341.89 69.45 341.92 68.87
  C 342.07 65.73 342.69 59.08 340.72 57.01
  C 339.30 55.50 335.10 55.68 333.46 56.61
  Q 330.91 58.07 331.00 61.03
  A 0.29 0.26 26.4 0 0 331.07 61.21
  Q 331.23 61.40 331.48 61.37
  Q 331.81 61.32 331.93 61.01
  Q 333.71 56.28 338.47 57.46
  Q 340.10 57.87 340.10 59.54
  L 340.10 61.39
  Q 340.10 62.68 338.82 62.55"
/>
<path stroke="#868686" vector-effect="non-scaling-stroke" d="
  M 345.90 57.49
  Q 345.66 57.02 345.24 56.82
  Q 344.67 56.56 344.63 57.19
  L 343.73 70.87
  Q 343.71 71.27 344.09 71.19
  L 345.30 70.94
  Q 345.76 70.85 345.79 70.37
  L 346.44 60.46
  A 1.08 1.08 0.0 0 1 346.91 59.63
  C 348.12 58.79 348.25 57.55 350.09 57.27
  C 353.28 56.78 353.96 58.53 354.04 61.30
  Q 354.21 67.03 354.33 69.85
  A 1.35 1.34 7.9 0 0 355.26 71.07
  L 355.55 71.16
  Q 356.42 71.43 356.31 70.53
  Q 355.87 67.04 355.84 60.54
  C 355.81 55.07 349.61 54.69 346.64 57.61
  Q 346.19 58.05 345.90 57.49"
/>
<path stroke="#868686" vector-effect="non-scaling-stroke" d="
  M 413.79 64.38
  C 414.75 60.02 412.23 55.55 407.40 55.81
  Q 404.04 56.00 402.22 59.02
  C 398.94 64.44 403.00 74.81 410.63 70.61
  Q 411.06 70.37 411.20 69.91
  Q 411.41 69.22 412.07 69.17
  Q 412.54 69.13 412.87 68.80
  Q 414.40 67.30 413.82 65.33
  Q 413.69 64.86 413.79 64.38"
/>
<path stroke="#868686" vector-effect="non-scaling-stroke" d="
  M 432.58 70.23
  Q 432.78 70.73 433.79 71.10
  Q 434.37 71.31 434.15 70.73
  L 433.29 68.55
  Q 433.11 68.08 433.10 67.57
  Q 432.99 64.25 433.06 61.67
  C 433.20 56.04 429.26 54.86 424.60 56.62
  Q 422.36 57.46 422.07 60.97
  Q 422.01 61.70 422.54 61.19
  Q 423.24 60.52 424.25 58.51
  Q 424.48 58.05 424.94 57.84
  Q 427.18 56.79 429.58 57.52
  Q 430.09 57.67 430.31 58.16
  Q 431.14 60.00 430.97 61.96
  Q 430.92 62.44 430.45 62.42
  Q 425.61 62.21 421.89 64.45
  Q 421.45 64.72 421.35 65.23
  Q 420.81 68.08 422.66 69.93
  Q 425.98 73.26 430.96 69.76
  Q 432.07 68.98 432.58 70.23"
/>
<path stroke="#868686" vector-effect="non-scaling-stroke" d="
  M 219.8824 56.4712
  A 0.26 0.26 0.0 0 0 219.6092 56.2251
  L 218.2710 56.2953
  A 0.26 0.26 0.0 0 0 218.0250 56.5685
  L 218.7776 70.9288
  A 0.26 0.26 0.0 0 0 219.0508 71.1749
  L 220.3890 71.1047
  A 0.26 0.26 0.0 0 0 220.6350 70.8315
  L 219.8824 56.4712"
/>
<path stroke="#868686" vector-effect="non-scaling-stroke" d="
  M 270.52 69.88
  L 269.48 70.09
  Q 266.20 70.75 266.03 67.26
  L 265.52 56.90
  Q 265.49 56.40 264.99 56.40
  L 264.61 56.40
  Q 264.21 56.40 264.21 56.81
  Q 264.16 62.37 264.06 64.99
  C 263.87 69.45 265.68 72.79 270.66 71.21
  C 271.67 70.89 272.12 69.99 272.79 69.63
  Q 273.29 69.37 273.75 69.54
  Q 274.08 69.67 274.54 70.66
  Q 274.69 70.99 275.05 71.02
  Q 275.21 71.03 275.32 70.98
  Q 275.60 70.85 275.60 70.56
  L 275.60 57.06
  Q 275.60 56.37 274.91 56.37
  L 274.47 56.37
  Q 273.80 56.37 273.80 57.04
  L 273.80 65.88
  Q 273.80 69.23 270.52 69.88"
/>
<path stroke="#868686" vector-effect="non-scaling-stroke" d="
  M 298.92 65.23
  C 298.75 68.31 297.43 70.20 294.19 70.15
  C 290.08 70.09 291.04 60.47 291.19 57.36
  A 0.64 0.64 0.0 0 0 290.45 56.70
  L 290.01 56.77
  Q 289.41 56.86 289.36 57.47
  Q 288.71 64.37 289.38 67.64
  Q 289.85 69.99 292.68 71.32
  C 294.56 72.20 298.25 70.70 300.40 70.01
  Q 300.94 69.84 300.94 69.26
  L 300.94 57.10
  A 0.57 0.56 -90.0 0 0 300.38 56.53
  L 299.80 56.53
  Q 299.21 56.53 299.20 57.12
  Q 299.15 61.12 298.92 65.23"
/>
<path stroke="#868686" vector-effect="non-scaling-stroke" d="
  M 239.9401 68.3094
  A 0.56 0.56 0.0 0 0 239.3685 67.7612
  L 238.4687 67.7801
  A 0.56 0.56 0.0 0 0 237.9206 68.3517
  L 238.0199 73.0906
  A 0.56 0.56 0.0 0 0 238.5915 73.6388
  L 239.4913 73.6199
  A 0.56 0.56 0.0 0 0 240.0394 73.0483
  L 239.9401 68.3094"
/>
<path stroke="#868686" vector-effect="non-scaling-stroke" d="
  M 131.50 31.40
  L 137.92 20.47
  A 0.10 0.10 0.0 0 0 137.88 20.33
  L 137.86 20.31
  A 6.28 4.83 -59.6 0 0 130.51 23.29
  L 130.35 23.56
  A 6.28 4.83 -59.6 0 0 131.34 31.42
  L 131.36 31.44
  A 0.10 0.10 0.0 0 0 131.50 31.40"
/>
<path stroke="#868686" vector-effect="non-scaling-stroke" d="
  M 140.59 21.94
  L 134.41 33.43
  A 0.10 0.10 0.0 0 0 134.45 33.56
  L 134.48 33.58
  A 6.53 5.29 -61.7 0 0 142.23 30.33
  L 142.32 30.18
  A 6.53 5.29 -61.7 0 0 140.76 21.92
  L 140.73 21.90
  A 0.10 0.10 0.0 0 0 140.59 21.94"
/>
<path stroke="#868686" vector-effect="non-scaling-stroke" d="
  M 167.46 25.29
  L 179.26 25.27
  A 0.11 0.11 0.0 0 0 179.37 25.16
  L 179.37 25.09
  A 5.87 5.32 -0.1 0 0 173.50 19.78
  L 173.22 19.78
  A 5.87 5.32 -0.1 0 0 167.35 25.11
  L 167.35 25.18
  A 0.11 0.11 0.0 0 0 167.46 25.29"
/>
<path stroke="#868686" vector-effect="non-scaling-stroke" d="
  M 231.68 25.20
  L 243.38 25.26
  A 0.12 0.12 0.0 0 0 243.50 25.14
  L 243.50 25.05
  A 5.89 5.17 0.3 0 0 237.63 19.85
  L 237.47 19.85
  A 5.89 5.17 0.3 0 0 231.56 24.99
  L 231.56 25.08
  A 0.12 0.12 0.0 0 0 231.68 25.20"
/>
<path stroke="#868686" vector-effect="non-scaling-stroke" d="
  M 114.68 61.50
  L 111.83 54.18
  Q 111.16 52.47 110.53 54.19
  L 107.59 62.14
  A 0.72 0.71 -80.8 0 0 108.28 63.10
  L 114.47 62.93
  A 0.72 0.68 72.1 0 0 115.00 61.83
  Q 114.95 61.74 114.78 61.66
  Q 114.73 61.64 114.68 61.50"
/>
<path stroke="#868686" vector-effect="non-scaling-stroke" d="
  M 364.2156 69.8395
  A 6.33 4.94 93.3 0 0 369.5118 63.8044
  A 6.33 4.94 93.3 0 0 364.9444 57.2005
  A 6.33 4.94 93.3 0 0 359.6482 63.2356
  A 6.33 4.94 93.3 0 0 364.2156 69.8395"
/>
<path stroke="#868686" vector-effect="non-scaling-stroke" d="
  M 192.13 62.51
  L 200.29 62.53
  A 0.24 0.24 0.0 0 0 200.53 62.30
  L 200.53 62.11
  A 4.83 4.25 -89.8 0 0 196.30 57.26
  L 196.16 57.26
  A 4.83 4.25 -89.8 0 0 191.89 62.07
  L 191.89 62.26
  A 0.24 0.24 0.0 0 0 192.13 62.51"
/>
<path stroke="#868686" vector-effect="non-scaling-stroke" d="
  M 210.0616 70.1392
  A 6.47 4.79 89.1 0 0 214.7494 63.5948
  A 6.47 4.79 89.1 0 0 209.8584 57.2008
  A 6.47 4.79 89.1 0 0 205.1706 63.7452
  A 6.47 4.79 89.1 0 0 210.0616 70.1392"
/>
<path stroke="#868686" vector-effect="non-scaling-stroke" d="
  M 192.04 63.81
  A 0.29 0.29 0.0 0 0 191.75 64.07
  Q 191.45 67.61 194.08 69.39
  C 197.68 71.84 200.41 67.60 201.59 64.80
  A 0.71 0.71 0.0 0 0 200.94 63.81
  L 192.04 63.81"
/>
<path stroke="#868686" vector-effect="non-scaling-stroke" d="
  M 144.9453 69.7797
  A 6.18 5.11 90.6 0 0 150.1197 63.6535
  A 6.18 5.11 90.6 0 0 145.0747 57.4203
  A 6.18 5.11 90.6 0 0 139.9003 63.5465
  A 6.18 5.11 90.6 0 0 144.9453 69.7797"
/>
<path stroke="#868686" vector-effect="non-scaling-stroke" d="
  M 224.84 64.70
  Q 223.34 65.54 224.08 67.09
  Q 225.72 70.57 228.82 69.73
  Q 233.06 68.59 232.11 64.23
  Q 232.01 63.74 231.51 63.70
  Q 227.34 63.30 224.84 64.70"
/>
<path stroke="#868686" vector-effect="non-scaling-stroke" d="
  M 312.43 62.31
  L 320.91 62.55
  A 0.27 0.27 0.0 0 0 321.18 62.29
  L 321.19 62.10
  A 4.62 4.51 -88.4 0 0 316.81 57.35
  L 316.81 57.35
  A 4.62 4.51 -88.4 0 0 312.17 61.84
  L 312.17 62.03
  A 0.27 0.27 0.0 0 0 312.43 62.31"
/>
<path stroke="#868686" vector-effect="non-scaling-stroke" d="
  M 321.43 63.73
  L 312.09 63.77
  A 0.29 0.29 0.0 0 0 311.81 64.07
  L 311.81 64.26
  A 5.66 4.81 89.7 0 0 316.65 69.89
  L 316.95 69.89
  A 5.66 4.81 89.7 0 0 321.73 64.20
  L 321.73 64.01
  A 0.29 0.29 0.0 0 0 321.43 63.73"
/>
<path stroke="#868686" vector-effect="non-scaling-stroke" d="
  M 339.80 63.65
  C 337.42 63.37 335.23 63.61 333.38 64.38
  Q 331.06 65.33 332.16 67.57
  L 332.53 68.34
  Q 333.71 70.75 336.28 69.95
  Q 340.86 68.53 340.16 63.94
  A 0.42 0.33 -0.4 0 0 339.80 63.65"
/>
<path stroke="#868686" vector-effect="non-scaling-stroke" d="
  M 403.50 62.38
  L 411.67 62.66
  A 0.41 0.41 0.0 0 0 412.10 62.27
  L 412.11 61.94
  A 4.62 4.34 -88.0 0 0 407.93 57.17
  L 407.61 57.16
  A 4.62 4.34 -88.0 0 0 403.12 61.62
  L 403.10 61.95
  A 0.41 0.41 0.0 0 0 403.50 62.38"
/>
<path stroke="#868686" vector-effect="non-scaling-stroke" d="
  M 410.69 68.55
  Q 410.78 68.53 411.04 68.51
  Q 411.52 68.46 411.68 68.00
  Q 412.29 66.17 412.43 66.03
  Q 414.54 63.82 411.38 63.79
  L 403.50 63.73
  Q 402.93 63.73 402.94 64.48
  Q 403.00 67.97 406.31 69.85
  C 407.93 70.77 408.77 69.85 410.12 68.84
  A 1.56 0.67 -50.3 0 1 410.69 68.55"
/>
<path stroke="#868686" vector-effect="non-scaling-stroke" d="
  M 430.47 63.51
  C 428.15 63.39 426.05 63.77 424.31 64.63
  Q 422.13 65.70 423.34 67.80
  L 423.75 68.52
  Q 425.05 70.77 427.48 69.83
  Q 431.82 68.15 430.84 63.76
  A 0.41 0.32 -4.3 0 0 430.47 63.51"
/>
</g>
<path fill="#ffffff" d="
  M 25.44 0.00
  Q 16.34 8.82 10.72 22.17
  Q 1.59 43.84 0.38 63.76
  Q 0.28 65.29 1.78 70.34
  C 4.31 78.88 11.85 71.52 14.71 68.21
  Q 16.43 66.21 20.82 60.75
  Q 22.11 59.14 21.72 61.17
  Q 20.75 66.14 20.56 72.00
  Q 20.38 77.29 22.62 82.00
  L 0.00 82.00
  L 0.00 0.00
  L 25.44 0.00
  Z"
/>
<path fill="#0d0d0c" d="
  M 29.50 0.00
  Q 31.65 1.36 33.06 3.31
  A 1.43 1.42 56.9 0 0 34.93 3.71
  L 40.00 0.79
  A 0.60 0.59 35.4 0 1 40.43 0.72
  C 44.43 1.59 46.18 6.12 46.92 9.76
  Q 46.99 10.14 47.34 10.30
  L 54.52 13.69
  Q 54.95 13.89 55.42 13.83
  C 62.92 12.89 64.07 19.02 64.92 25.22
  Q 64.99 25.78 65.55 25.75
  Q 70.47 25.54 72.98 31.47
  Q 73.59 32.92 74.74 32.17
  Q 74.92 32.05 75.60 32.08
  A 1.45 1.42 -22.0 0 1 76.47 32.44
  Q 79.78 35.41 80.02 38.75
  Q 80.22 41.57 79.36 51.05
  Q 79.31 51.63 79.74 51.25
  Q 81.76 49.45 84.12 46.87
  Q 85.16 45.73 86.27 45.55
  Q 88.14 45.25 87.10 46.84
  Q 78.44 60.08 82.71 75.41
  A 0.42 0.40 -83.9 0 1 82.13 75.90
  L 81.73 75.67
  A 2.20 0.94 20.9 0 1 80.62 74.60
  Q 77.44 63.98 81.52 53.80
  Q 81.68 53.41 81.40 53.13
  Q 80.99 52.73 80.63 53.17
  Q 76.95 57.72 73.51 62.75
  Q 71.33 65.93 66.79 70.05
  A 0.61 0.58 -19.0 0 1 65.77 69.59
  L 65.85 68.97
  A 0.44 0.01 -83.1 0 1 65.91 68.55
  Q 68.27 65.57 71.92 61.18
  C 77.63 54.34 78.40 46.90 78.12 38.33
  A 4.66 4.66 0.0 0 0 76.77 35.20
  L 75.64 34.08
  Q 74.21 32.65 74.08 34.67
  C 73.85 38.25 74.15 43.66 73.46 47.47
  Q 71.98 55.57 67.15 62.19
  Q 64.16 66.30 62.63 67.88
  C 60.91 69.65 55.43 73.51 52.72 72.57
  Q 52.20 72.39 51.71 72.64
  Q 50.75 73.14 49.56 74.57
  Q 46.88 77.78 41.66 81.20
  Q 41.05 81.60 41.14 80.87
  Q 41.16 80.73 41.16 80.59
  Q 41.16 80.07 40.68 79.87
  Q 39.07 79.21 38.22 78.07
  Q 37.90 77.63 38.13 77.14
  L 38.29 76.80
  Q 38.57 76.21 37.98 76.49
  C 35.59 77.63 32.71 80.92 30.37 77.86
  Q 30.01 77.40 29.60 77.81
  L 25.37 82.00
  L 22.62 82.00
  Q 20.38 77.29 20.56 72.00
  Q 20.75 66.14 21.72 61.17
  Q 22.11 59.14 20.82 60.75
  Q 16.43 66.21 14.71 68.21
  C 11.85 71.52 4.31 78.88 1.78 70.34
  Q 0.28 65.29 0.38 63.76
  Q 1.59 43.84 10.72 22.17
  Q 16.34 8.82 25.44 0.00
  L 29.50 0.00
  Z
  M 20.71 25.30
  Q 20.89 25.05 21.26 24.25
  Q 24.74 16.73 31.16 8.41
  C 33.48 5.39 31.20 3.96 29.16 2.04
  A 1.97 1.96 47.8 0 0 26.62 1.91
  C 19.93 7.05 15.58 15.35 12.22 23.22
  Q 3.52 43.65 2.31 66.46
  A 0.92 0.91 22.5 0 0 2.61 67.18
  Q 3.32 67.83 3.63 66.74
  Q 9.81 45.07 20.16 26.06
  Q 20.18 26.02 20.71 25.30
  Z
  M 36.23 20.64
  Q 36.16 21.24 36.16 21.35
  Q 36.07 22.50 36.80 21.62
  Q 39.43 18.49 44.35 12.37
  Q 45.54 10.89 45.31 9.97
  Q 44.54 6.98 42.56 4.47
  C 40.47 1.81 38.16 3.84 36.15 5.38
  Q 34.79 6.42 35.00 7.50
  Q 36.74 16.25 36.23 20.64
  Z
  M 30.15 12.68
  C 19.85 28.89 10.43 48.09 6.14 66.17
  A 0.96 0.96 0.0 0 0 6.44 67.11
  C 7.77 68.29 9.29 68.60 10.95 67.35
  Q 17.17 62.67 21.63 55.83
  Q 23.45 53.04 25.17 47.42
  Q 28.36 37.04 33.86 27.16
  C 35.05 25.02 35.03 23.44 34.80 21.24
  Q 33.98 13.27 33.74 9.61
  A 0.44 0.43 -22.0 0 0 33.02 9.31
  Q 31.43 10.66 30.15 12.68
  Z
  M 47.72 15.51
  Q 47.88 17.19 47.99 18.22
  Q 48.04 18.74 48.48 18.48
  Q 50.34 17.40 51.84 15.84
  Q 52.19 15.48 52.15 15.07
  Q 52.10 14.66 51.69 14.37
  Q 49.92 13.14 47.89 12.44
  Q 47.41 12.27 47.45 12.79
  Q 47.55 13.82 47.72 15.51
  Z
  M 31.53 44.59
  Q 29.71 47.99 26.85 52.61
  C 23.44 58.10 22.98 64.81 22.59 71.55
  Q 22.29 76.52 24.17 80.25
  A 0.42 0.42 0.0 0 0 24.87 80.33
  L 28.10 76.42
  A 1.06 0.93 -32.2 0 0 28.34 75.62
  Q 27.30 68.95 28.33 61.78
  Q 31.30 41.05 44.05 24.28
  C 46.24 21.39 45.89 18.55 45.89 14.80
  A 0.28 0.28 0.0 0 0 45.43 14.59
  C 42.58 17.14 36.50 24.30 36.18 27.99
  Q 35.38 37.38 31.53 44.59
  Z
  M 55.83 33.99
  Q 55.82 34.14 55.93 34.02
  L 63.05 26.53
  A 0.64 0.53 66.3 0 0 63.19 26.04
  C 62.61 21.41 61.70 13.90 55.49 15.80
  Q 54.94 15.97 55.04 16.53
  Q 56.51 24.46 55.83 33.99
  Z
  M 53.57 18.61
  Q 53.43 17.25 52.34 18.08
  L 48.41 21.09
  A 1.28 1.26 77.7 0 0 47.95 21.82
  Q 47.40 24.42 47.36 25.22
  Q 46.21 48.65 35.30 68.60
  Q 32.80 73.17 31.10 76.11
  A 0.72 0.71 29.2 0 0 31.38 77.09
  Q 31.94 77.39 32.92 77.06
  Q 38.80 75.07 39.94 69.10
  Q 40.82 64.49 40.84 64.45
  Q 45.05 50.59 52.90 38.91
  Q 54.09 37.15 54.12 36.19
  Q 54.44 26.71 53.57 18.61
  Z
  M 31.34 72.32
  Q 43.83 50.98 45.45 26.49
  Q 45.52 25.40 44.86 26.27
  Q 32.32 42.94 30.00 64.06
  Q 29.49 68.70 30.10 72.86
  Q 30.26 73.92 30.92 73.01
  Q 31.01 72.87 31.34 72.32
  Z
  M 63.82 44.95
  Q 66.66 40.65 70.57 36.15
  C 72.79 33.59 70.14 29.27 67.86 27.72
  A 1.64 1.63 -73.7 0 0 65.31 29.12
  Q 65.49 36.26 63.62 44.86
  Q 63.50 45.43 63.82 44.95
  Z
  M 63.74 29.49
  Q 63.77 29.14 63.49 29.34
  Q 59.12 32.54 56.79 36.55
  Q 55.80 38.26 54.49 44.68
  Q 52.55 54.20 47.89 62.68
  C 45.83 66.43 42.07 71.06 40.28 75.03
  Q 39.57 76.61 40.60 78.18
  Q 40.88 78.60 41.37 78.51
  C 46.06 77.67 50.78 70.68 52.67 66.67
  Q 59.19 52.87 60.32 50.42
  Q 61.68 47.46 62.07 44.12
  Q 63.69 30.09 63.74 29.49
  Z
  M 32.40 33.45
  L 26.97 47.37
  A 0.12 0.12 0.0 0 0 27.04 47.53
  L 27.07 47.54
  A 7.41 1.17 -68.7 0 0 30.85 41.06
  L 30.98 40.72
  A 7.41 1.17 -68.7 0 0 32.58 33.39
  L 32.55 33.38
  A 0.12 0.12 0.0 0 0 32.40 33.45
  Z
  M 53.53 70.48
  A 0.47 0.45 34.7 0 0 53.62 70.92
  Q 53.86 71.19 54.28 71.03
  Q 57.74 69.69 60.69 66.90
  Q 73.13 55.11 72.00 38.34
  Q 71.92 37.18 71.19 38.09
  Q 68.27 41.71 65.98 45.20
  C 62.73 50.15 60.87 54.86 57.51 62.15
  C 56.54 64.26 54.32 67.76 53.53 70.48
  Z
  M 46.41 54.87
  C 44.51 59.22 42.62 63.59 42.18 67.92
  Q 42.10 68.71 42.51 68.04
  Q 46.83 60.95 48.99 56.00
  Q 51.15 51.05 53.40 43.06
  Q 53.62 42.30 53.10 42.89
  C 50.22 46.16 48.31 50.53 46.41 54.87
  Z
  M 8.67 70.94
  L 4.23 67.66
  A 0.10 0.10 0.0 0 0 4.09 67.68
  L 4.04 67.74
  A 2.79 2.54 36.5 0 0 4.77 71.44
  L 4.89 71.52
  A 2.79 2.54 36.5 0 0 8.64 71.14
  L 8.69 71.08
  A 0.10 0.10 0.0 0 0 8.67 70.94
  Z"
/>
<path fill="#ffffff" d="
  M 466.00 0.00
  L 466.00 82.00
  L 25.37 82.00
  L 29.60 77.81
  Q 30.01 77.40 30.37 77.86
  C 32.71 80.92 35.59 77.63 37.98 76.49
  Q 38.57 76.21 38.29 76.80
  L 38.13 77.14
  Q 37.90 77.63 38.22 78.07
  Q 39.07 79.21 40.68 79.87
  Q 41.16 80.07 41.16 80.59
  Q 41.16 80.73 41.14 80.87
  Q 41.05 81.60 41.66 81.20
  Q 46.88 77.78 49.56 74.57
  Q 50.75 73.14 51.71 72.64
  Q 52.20 72.39 52.72 72.57
  C 55.43 73.51 60.91 69.65 62.63 67.88
  Q 64.16 66.30 67.15 62.19
  Q 71.98 55.57 73.46 47.47
  C 74.15 43.66 73.85 38.25 74.08 34.67
  Q 74.21 32.65 75.64 34.08
  L 76.77 35.20
  A 4.66 4.66 0.0 0 1 78.12 38.33
  C 78.40 46.90 77.63 54.34 71.92 61.18
  Q 68.27 65.57 65.91 68.55
  A 0.44 0.01 -83.1 0 0 65.85 68.97
  L 65.77 69.59
  A 0.61 0.58 -19.0 0 0 66.79 70.05
  Q 71.33 65.93 73.51 62.75
  Q 76.95 57.72 80.63 53.17
  Q 80.99 52.73 81.40 53.13
  Q 81.68 53.41 81.52 53.80
  Q 77.44 63.98 80.62 74.60
  A 2.20 0.94 20.9 0 0 81.73 75.67
  L 82.13 75.90
  A 0.42 0.40 -83.9 0 0 82.71 75.41
  Q 78.44 60.08 87.10 46.84
  Q 88.14 45.25 86.27 45.55
  Q 85.16 45.73 84.12 46.87
  Q 81.76 49.45 79.74 51.25
  Q 79.31 51.63 79.36 51.05
  Q 80.22 41.57 80.02 38.75
  Q 79.78 35.41 76.47 32.44
  A 1.45 1.42 -22.0 0 0 75.60 32.08
  Q 74.92 32.05 74.74 32.17
  Q 73.59 32.92 72.98 31.47
  Q 70.47 25.54 65.55 25.75
  Q 64.99 25.78 64.92 25.22
  C 64.07 19.02 62.92 12.89 55.42 13.83
  Q 54.95 13.89 54.52 13.69
  L 47.34 10.30
  Q 46.99 10.14 46.92 9.76
  C 46.18 6.12 44.43 1.59 40.43 0.72
  A 0.60 0.59 35.4 0 0 40.00 0.79
  L 34.93 3.71
  A 1.43 1.42 56.9 0 1 33.06 3.31
  Q 31.65 1.36 29.50 0.00
  L 466.00 0.00
  Z
  M 111.97 20.10
  C 105.36 17.78 108.14 10.69 114.49 11.94
  C 117.68 12.57 117.64 16.92 121.42 15.87
  Q 121.91 15.73 121.81 15.23
  C 119.55 4.24 102.10 8.04 104.94 17.53
  Q 106.17 21.61 109.01 22.77
  C 113.54 24.61 120.62 26.06 118.56 30.93
  Q 116.89 34.87 112.18 33.86
  Q 109.68 33.32 107.22 29.87
  Q 106.88 29.40 106.28 29.16
  Q 105.37 28.82 104.93 29.03
  A 1.60 1.55 65.4 0 0 104.21 31.07
  Q 106.46 36.37 112.06 37.18
  C 116.77 37.87 121.51 35.68 122.58 30.79
  C 124.12 23.75 117.00 21.86 111.97 20.10
  Z
  M 138.91 16.90
  C 134.07 16.82 130.57 17.28 127.54 21.55
  Q 125.18 24.86 126.66 30.11
  Q 126.82 30.67 128.63 33.86
  Q 128.87 34.29 128.87 34.78
  L 128.87 36.83
  A 1.40 1.39 -7.1 0 0 130.61 38.18
  Q 131.59 37.93 132.52 37.35
  Q 132.96 37.07 133.47 37.10
  C 140.34 37.56 146.44 34.52 146.57 27.15
  C 146.63 23.66 144.33 20.15 142.24 15.98
  A 1.03 1.03 0.0 0 0 140.59 15.71
  L 139.74 16.56
  Q 139.39 16.91 138.91 16.90
  Z
  M 154.74 18.57
  L 153.45 17.27
  A 1.18 1.18 0.0 0 0 151.44 18.11
  L 151.44 35.70
  A 1.35 1.34 -90.0 0 0 152.78 37.05
  L 153.84 37.05
  Q 154.95 37.05 154.94 35.94
  Q 154.92 33.30 154.96 30.34
  C 155.03 24.79 154.50 21.22 160.76 20.19
  Q 162.33 19.93 161.94 18.20
  Q 161.53 16.34 159.74 17.03
  L 155.44 18.71
  Q 155.04 18.86 154.74 18.57
  Z
  M 167.70 27.90
  L 181.86 27.90
  Q 183.49 27.90 183.39 26.28
  C 182.97 19.57 177.00 15.25 170.28 17.33
  C 160.57 20.34 161.83 35.97 172.31 37.15
  Q 179.09 37.92 182.55 31.25
  Q 183.07 30.25 182.05 30.08
  Q 181.96 30.07 181.36 30.48
  Q 180.09 31.35 177.96 32.76
  C 173.39 35.77 168.65 34.21 167.06 28.75
  Q 166.82 27.90 167.70 27.90
  Z
  M 191.48 18.42
  Q 190.88 18.16 190.59 17.89
  Q 187.99 15.52 187.98 18.75
  L 187.93 35.82
  Q 187.92 37.01 189.12 37.01
  L 190.38 37.01
  Q 191.40 37.01 191.38 35.99
  Q 191.29 31.72 191.43 27.82
  C 191.59 23.36 192.62 19.83 197.52 19.76
  C 200.70 19.71 201.77 23.16 201.80 25.76
  Q 201.85 30.34 201.78 36.26
  A 0.82 0.82 0.0 0 0 202.60 37.09
  L 204.11 37.09
  Q 204.86 37.09 204.89 36.34
  C 205.07 31.24 205.91 23.92 203.90 20.27
  C 201.18 15.31 196.57 16.90 192.25 18.45
  Q 191.86 18.59 191.48 18.42
  Z
  M 217.07 19.36
  Q 218.63 19.75 221.28 22.32
  Q 221.63 22.67 222.04 22.81
  Q 222.70 23.05 222.98 23.01
  A 1.60 1.27 67.7 0 0 223.65 20.71
  Q 220.89 16.14 215.67 16.91
  C 210.12 17.72 207.48 24.46 213.48 27.14
  Q 213.65 27.22 219.53 29.47
  Q 221.96 30.40 220.72 32.97
  Q 220.70 33.02 220.66 33.06
  Q 218.75 35.26 216.35 34.38
  Q 213.95 33.50 211.04 30.63
  Q 210.16 29.76 209.84 30.95
  Q 209.65 31.69 209.84 32.72
  Q 210.11 34.17 211.30 35.06
  Q 216.18 38.70 220.97 36.74
  C 224.26 35.39 226.29 31.02 223.63 27.98
  C 221.51 25.54 218.10 25.34 214.77 24.13
  Q 212.62 23.35 213.60 21.28
  L 213.77 20.91
  Q 214.78 18.77 217.07 19.36
  Z
  M 231.98 27.88
  L 246.14 27.88
  Q 247.77 27.88 247.67 26.26
  C 247.25 19.54 241.28 15.22 234.56 17.31
  C 224.85 20.32 226.11 35.95 236.59 37.13
  Q 243.37 37.90 246.83 31.23
  Q 247.35 30.23 246.33 30.06
  Q 246.24 30.05 245.64 30.46
  Q 244.37 31.33 242.24 32.74
  C 237.67 35.75 232.93 34.19 231.34 28.73
  Q 231.10 27.88 231.98 27.88
  Z
  M 255.64 18.45
  Q 255.04 18.20 254.75 17.93
  Q 252.14 15.59 252.15 18.81
  L 252.23 35.83
  Q 252.23 37.01 253.43 37.00
  L 254.68 36.99
  Q 255.70 36.99 255.67 35.97
  Q 255.55 31.71 255.66 27.82
  C 255.78 23.38 256.78 19.85 261.67 19.74
  C 264.84 19.67 265.93 23.10 265.98 25.69
  Q 266.07 30.26 266.04 36.16
  A 0.82 0.82 0.0 0 0 266.87 36.98
  L 268.37 36.97
  Q 269.12 36.96 269.14 36.22
  C 269.28 31.13 270.07 23.83 268.03 20.20
  C 265.28 15.28 260.70 16.90 256.41 18.48
  Q 256.02 18.62 255.64 18.45
  Z
  M 111.30 64.73
  Q 114.36 64.75 114.87 64.81
  A 1.50 1.50 0.0 0 1 116.06 65.68
  C 116.44 66.53 117.99 70.70 119.89 71.59
  A 0.31 0.31 0.0 0 0 120.31 71.20
  Q 116.13 59.53 112.09 50.46
  Q 111.89 50.02 111.43 50.02
  Q 110.96 50.02 110.76 50.45
  Q 106.56 59.45 102.17 71.04
  A 0.31 0.31 0.0 0 0 102.59 71.44
  C 104.50 70.58 106.13 66.44 106.52 65.60
  A 1.50 1.50 0.0 0 1 107.73 64.75
  Q 108.24 64.70 111.30 64.73
  Z
  M 135.69 55.31
  Q 136.06 53.12 137.62 51.87
  Q 139.21 50.60 137.18 50.64
  C 134.46 50.70 134.17 53.17 133.75 55.23
  Q 133.66 55.67 133.25 55.83
  L 131.55 56.49
  Q 131.36 56.57 131.36 56.77
  L 131.36 57.20
  A 0.63 0.63 0.0 0 0 131.99 57.83
  L 133.20 57.83
  Q 133.76 57.83 133.76 58.38
  L 133.76 69.36
  A 1.80 1.79 -84.1 0 0 135.18 71.12
  L 135.47 71.18
  A 0.59 0.59 0.0 0 0 136.17 70.49
  Q 134.94 64.63 135.87 58.71
  Q 135.95 58.21 136.30 57.86
  L 137.45 56.71
  Q 138.03 56.13 137.21 56.08
  L 136.24 56.01
  Q 135.57 55.97 135.69 55.31
  Z
  M 122.9423 51.7279
  A 0.90 0.90 0.0 0 0 122.0298 50.8406
  L 121.9698 50.8414
  A 0.90 0.90 0.0 0 0 121.0825 51.7539
  L 121.3377 70.0321
  A 0.90 0.90 0.0 0 0 122.2502 70.9194
  L 122.3102 70.9186
  A 0.90 0.90 0.0 0 0 123.1975 70.0061
  L 122.9423 51.7279
  Z
  M 370.00 69.44
  Q 369.89 70.11 370.26 70.49
  A 0.57 0.57 0.0 0 0 371.17 70.39
  Q 371.28 70.20 371.28 70.04
  Q 371.61 61.60 371.22 51.53
  Q 371.18 50.64 370.22 50.87
  L 369.94 50.94
  A 0.69 0.64 85.6 0 0 369.45 51.56
  Q 369.25 54.39 370.07 57.57
  Q 370.18 58.01 369.79 57.77
  Q 361.88 52.99 358.45 60.35
  Q 357.62 62.13 357.89 65.10
  Q 358.11 67.63 359.60 69.20
  Q 363.86 73.69 369.53 69.16
  Q 370.12 68.69 370.00 69.44
  Z
  M 283.16 57.91
  Q 282.70 64.98 283.28 68.29
  Q 283.73 70.89 286.83 71.51
  Q 287.42 71.63 287.22 71.06
  Q 286.95 70.33 286.23 69.15
  C 284.60 66.47 284.73 62.14 284.96 58.28
  Q 284.99 57.77 285.50 57.70
  Q 287.68 57.41 288.44 57.06
  Q 289.18 56.72 288.40 56.48
  Q 287.22 56.10 285.55 56.23
  A 0.45 0.45 0.0 0 1 285.07 55.78
  L 285.07 52.91
  A 0.88 0.88 0.0 0 0 284.19 52.03
  L 283.80 52.03
  Q 282.98 52.03 282.98 52.85
  L 282.98 55.63
  A 0.53 0.52 85.5 0 1 282.54 56.15
  L 280.33 56.49
  Q 279.85 56.57 279.85 56.08
  L 279.85 51.78
  Q 279.85 51.12 279.20 51.08
  L 278.86 51.06
  Q 278.03 51.01 278.03 51.84
  L 278.03 70.56
  Q 278.03 71.22 278.68 71.12
  L 279.36 71.01
  Q 279.90 70.93 279.90 70.38
  L 279.90 57.59
  Q 279.90 57.39 280.10 57.41
  L 282.87 57.59
  Q 283.18 57.61 283.16 57.91
  Z
  M 390.39 57.01
  A 0.31 0.31 0.0 0 1 389.96 56.78
  L 389.11 51.27
  Q 389.06 50.98 388.76 50.98
  L 388.51 50.98
  Q 388.17 50.98 388.17 51.31
  L 388.17 69.61
  Q 388.17 69.88 387.91 69.97
  Q 387.79 70.01 387.66 70.05
  Q 386.91 70.28 387.57 70.70
  Q 388.31 71.17 389.08 70.58
  A 1.96 1.41 77.9 0 0 389.68 69.21
  L 389.94 61.13
  Q 390.05 57.54 393.58 57.47
  Q 393.69 57.47 393.84 57.47
  Q 397.49 57.36 397.63 60.96
  L 397.98 70.22
  A 0.88 0.88 0.0 0 0 398.86 71.07
  L 399.38 71.07
  Q 400.08 71.07 400.01 70.37
  Q 399.63 66.66 399.70 61.80
  Q 399.73 59.22 397.31 56.59
  A 1.32 1.32 0.0 0 0 396.47 56.17
  Q 393.01 55.83 390.39 57.01
  Z
  M 202.14 63.20
  A 0.49 0.48 46.6 0 1 203.10 63.23
  Q 203.66 67.73 206.70 70.51
  C 209.39 72.98 212.78 70.45 215.42 70.11
  Q 215.94 70.04 216.01 69.53
  Q 216.68 64.86 216.31 62.50
  Q 215.78 59.05 216.22 57.05
  C 216.62 55.20 215.96 53.70 215.84 51.70
  Q 215.81 51.18 215.29 51.26
  L 214.66 51.36
  Q 214.21 51.43 214.28 51.88
  L 214.94 56.13
  Q 215.18 57.67 213.77 57.02
  Q 206.19 53.52 203.96 60.91
  Q 203.67 61.89 202.74 61.48
  A 0.84 0.80 -87.4 0 1 202.28 60.95
  C 201.65 58.63 199.87 56.16 197.18 55.85
  C 189.99 55.02 187.71 65.01 191.67 69.52
  C 195.13 73.45 200.46 71.28 202.21 67.01
  Q 202.40 66.54 202.31 66.04
  Q 201.97 64.15 202.14 63.20
  Z
  M 217.06 51.61
  Q 216.92 52.22 219.92 53.12
  Q 220.34 53.25 220.63 53.13
  Q 221.05 52.96 221.15 52.54
  Q 221.25 52.11 220.94 51.77
  Q 220.73 51.54 220.29 51.48
  Q 217.20 50.99 217.06 51.61
  Z
  M 381.75 58.27
  C 381.33 61.20 380.90 66.57 382.14 69.75
  C 382.84 71.55 385.54 71.37 386.77 70.79
  Q 387.41 70.49 386.71 70.37
  Q 384.19 69.96 383.60 67.89
  Q 383.48 67.46 383.30 64.44
  Q 383.11 61.08 383.27 58.27
  A 0.92 0.91 4.8 0 1 384.28 57.42
  Q 385.86 57.60 386.85 57.33
  Q 387.61 57.13 386.93 56.75
  Q 385.88 56.18 384.37 56.28
  Q 382.93 56.38 383.18 55.13
  L 383.64 52.82
  Q 383.80 52.02 382.98 52.02
  L 382.56 52.02
  Q 381.88 52.02 381.81 52.70
  L 381.59 55.03
  Q 381.46 56.46 380.01 56.28
  Q 379.04 56.17 378.92 57.00
  Q 378.83 57.71 379.55 57.71
  L 381.27 57.71
  Q 381.83 57.71 381.75 58.27
  Z
  M 445.90 55.48
  L 445.90 52.50
  Q 445.90 52.13 445.53 52.13
  L 444.97 52.13
  A 0.64 0.64 0.0 0 0 444.33 52.77
  L 444.33 55.52
  Q 444.33 56.00 443.86 56.07
  L 436.68 57.19
  A 0.68 0.67 -0.6 0 0 436.12 57.76
  Q 435.21 63.79 435.87 70.63
  Q 435.93 71.24 436.50 71.02
  L 437.06 70.80
  A 0.90 0.89 79.6 0 0 437.63 69.96
  L 437.63 62.28
  Q 437.63 59.15 440.58 58.10
  L 441.64 57.72
  Q 444.60 56.68 444.31 59.85
  Q 443.97 63.71 444.37 67.96
  Q 444.73 71.74 448.92 71.09
  Q 449.33 71.03 449.33 70.62
  L 449.33 70.16
  Q 449.33 69.80 448.98 69.91
  C 445.02 71.16 445.95 61.92 445.91 58.78
  Q 445.89 57.40 447.27 57.40
  L 448.33 57.40
  A 2.04 2.04 0.0 0 1 450.37 59.52
  C 450.16 65.69 458.98 62.47 459.93 66.55
  A 2.05 2.04 -29.6 0 1 459.41 68.43
  C 455.85 72.11 453.62 69.60 451.39 66.69
  Q 450.14 65.05 450.14 67.12
  L 450.14 68.06
  Q 450.14 68.61 450.60 68.92
  C 453.80 71.02 455.63 73.21 459.39 70.26
  C 461.33 68.74 463.17 66.78 460.60 64.68
  Q 458.51 62.97 455.58 62.39
  C 453.47 61.97 451.50 61.12 451.99 58.76
  A 1.03 1.00 -7.4 0 1 452.55 58.05
  Q 455.69 56.59 458.18 58.03
  A 1.63 1.61 -88.3 0 1 458.84 58.74
  Q 459.76 60.61 460.29 61.28
  Q 461.17 62.37 461.09 61.03
  Q 460.84 56.76 456.75 56.16
  Q 452.99 55.60 451.03 57.73
  Q 450.64 58.15 450.27 57.71
  Q 448.79 55.96 446.50 56.05
  Q 445.90 56.08 445.90 55.48
  Z
  M 144.5902 71.4693
  A 7.83 7.13 93.0 0 0 152.1202 64.0232
  A 7.83 7.13 93.0 0 0 145.4098 55.8307
  A 7.83 7.13 93.0 0 0 137.8798 63.2768
  A 7.83 7.13 93.0 0 0 144.5902 71.4693
  Z
  M 155.21 57.29
  Q 154.65 56.71 153.96 56.64
  A 0.59 0.59 0.0 0 0 153.32 57.34
  Q 154.44 63.04 153.59 69.99
  Q 153.56 70.22 153.71 70.38
  Q 155.09 71.92 155.50 68.13
  Q 155.63 67.00 155.64 66.75
  L 155.86 60.18
  A 1.30 1.29 78.9 0 1 156.61 59.05
  L 160.50 57.25
  A 0.77 0.36 -82.4 0 0 160.82 56.75
  Q 160.86 56.63 160.83 56.50
  Q 160.74 56.04 160.28 56.09
  Q 158.61 56.29 156.86 57.46
  A 1.31 1.31 0.0 0 1 155.21 57.29
  Z
  M 178.16 57.84
  C 175.84 55.06 173.49 56.22 169.48 56.63
  A 1.41 1.40 87.3 0 0 168.21 58.03
  L 168.21 70.65
  Q 168.21 71.08 168.64 71.08
  L 168.94 71.08
  Q 169.56 71.08 169.59 70.46
  L 170.06 60.96
  Q 170.23 57.47 173.82 57.53
  Q 173.88 57.53 173.96 57.53
  Q 177.32 57.57 177.25 61.00
  L 177.07 70.26
  A 0.75 0.75 0.0 0 0 177.77 71.03
  L 178.16 71.05
  Q 178.78 71.10 178.81 70.47
  L 179.34 61.11
  Q 179.51 57.97 182.59 57.42
  L 182.83 57.37
  Q 185.79 56.99 185.91 59.97
  L 186.35 70.27
  Q 186.39 71.08 187.21 71.14
  L 187.70 71.17
  Q 188.28 71.21 188.20 70.63
  Q 187.62 66.70 187.76 62.04
  C 187.89 57.96 186.92 55.37 182.29 55.98
  Q 180.61 56.20 179.24 57.84
  Q 178.70 58.49 178.16 57.84
  Z
  M 232.23 60.91
  Q 232.48 62.46 230.91 62.38
  Q 226.70 62.15 222.52 64.31
  Q 222.07 64.54 221.98 65.04
  Q 221.63 67.10 222.36 68.12
  C 224.73 71.44 227.48 72.84 231.07 70.07
  A 1.59 1.59 0.0 0 1 233.38 70.46
  Q 233.70 70.95 233.98 71.09
  Q 235.45 71.81 235.03 70.12
  C 234.82 69.25 234.25 68.19 234.25 66.90
  C 234.25 62.60 235.32 55.88 229.27 55.81
  Q 224.46 55.75 222.90 60.13
  Q 222.55 61.12 223.52 60.71
  C 226.48 59.45 225.47 56.67 230.17 57.26
  Q 231.69 57.46 231.93 58.97
  L 232.23 60.91
  Z
  M 249.47 63.72
  C 249.56 69.80 255.80 74.16 261.15 69.10
  Q 262.56 67.77 262.56 65.53
  Q 262.56 64.97 262.07 65.35
  C 260.80 66.30 259.27 69.42 257.18 69.79
  C 253.53 70.43 251.50 66.99 251.45 63.69
  C 251.40 60.39 253.31 56.88 256.98 57.41
  C 259.09 57.71 260.71 60.78 262.01 61.69
  Q 262.51 62.06 262.50 61.50
  Q 262.43 59.26 260.98 57.97
  C 255.47 53.08 249.37 57.64 249.47 63.72
  Z
  M 303.98 57.95
  Q 303.61 58.09 303.61 58.49
  L 303.61 70.31
  Q 303.61 71.13 304.43 71.13
  L 304.73 71.13
  A 0.55 0.55 0.0 0 0 305.28 70.56
  C 305.19 67.17 304.76 63.92 306.03 60.52
  C 306.57 59.05 308.22 58.17 309.61 57.04
  Q 309.78 56.90 309.87 56.70
  Q 310.06 56.30 309.51 56.01
  A 0.63 0.62 48.1 0 0 309.02 55.98
  L 303.98 57.95
  Z
  M 316.1721 71.6505
  A 7.94 6.65 92.8 0 0 323.2021 64.0449
  A 7.94 6.65 92.8 0 0 316.9479 55.7895
  A 7.94 6.65 92.8 0 0 309.9179 63.3951
  A 7.94 6.65 92.8 0 0 316.1721 71.6505
  Z
  M 338.82 62.55
  C 335.69 62.23 330.13 62.71 330.01 66.91
  Q 329.96 68.80 331.55 70.09
  C 334.98 72.85 337.90 70.65 341.34 69.62
  Q 341.89 69.45 341.92 68.87
  C 342.07 65.73 342.69 59.08 340.72 57.01
  C 339.30 55.50 335.10 55.68 333.46 56.61
  Q 330.91 58.07 331.00 61.03
  A 0.29 0.26 26.4 0 0 331.07 61.21
  Q 331.23 61.40 331.48 61.37
  Q 331.81 61.32 331.93 61.01
  Q 333.71 56.28 338.47 57.46
  Q 340.10 57.87 340.10 59.54
  L 340.10 61.39
  Q 340.10 62.68 338.82 62.55
  Z
  M 345.90 57.49
  Q 345.66 57.02 345.24 56.82
  Q 344.67 56.56 344.63 57.19
  L 343.73 70.87
  Q 343.71 71.27 344.09 71.19
  L 345.30 70.94
  Q 345.76 70.85 345.79 70.37
  L 346.44 60.46
  A 1.08 1.08 0.0 0 1 346.91 59.63
  C 348.12 58.79 348.25 57.55 350.09 57.27
  C 353.28 56.78 353.96 58.53 354.04 61.30
  Q 354.21 67.03 354.33 69.85
  A 1.35 1.34 7.9 0 0 355.26 71.07
  L 355.55 71.16
  Q 356.42 71.43 356.31 70.53
  Q 355.87 67.04 355.84 60.54
  C 355.81 55.07 349.61 54.69 346.64 57.61
  Q 346.19 58.05 345.90 57.49
  Z
  M 413.79 64.38
  C 414.75 60.02 412.23 55.55 407.40 55.81
  Q 404.04 56.00 402.22 59.02
  C 398.94 64.44 403.00 74.81 410.63 70.61
  Q 411.06 70.37 411.20 69.91
  Q 411.41 69.22 412.07 69.17
  Q 412.54 69.13 412.87 68.80
  Q 414.40 67.30 413.82 65.33
  Q 413.69 64.86 413.79 64.38
  Z
  M 432.58 70.23
  Q 432.78 70.73 433.79 71.10
  Q 434.37 71.31 434.15 70.73
  L 433.29 68.55
  Q 433.11 68.08 433.10 67.57
  Q 432.99 64.25 433.06 61.67
  C 433.20 56.04 429.26 54.86 424.60 56.62
  Q 422.36 57.46 422.07 60.97
  Q 422.01 61.70 422.54 61.19
  Q 423.24 60.52 424.25 58.51
  Q 424.48 58.05 424.94 57.84
  Q 427.18 56.79 429.58 57.52
  Q 430.09 57.67 430.31 58.16
  Q 431.14 60.00 430.97 61.96
  Q 430.92 62.44 430.45 62.42
  Q 425.61 62.21 421.89 64.45
  Q 421.45 64.72 421.35 65.23
  Q 420.81 68.08 422.66 69.93
  Q 425.98 73.26 430.96 69.76
  Q 432.07 68.98 432.58 70.23
  Z
  M 219.8824 56.4712
  A 0.26 0.26 0.0 0 0 219.6092 56.2251
  L 218.2710 56.2953
  A 0.26 0.26 0.0 0 0 218.0250 56.5685
  L 218.7776 70.9288
  A 0.26 0.26 0.0 0 0 219.0508 71.1749
  L 220.3890 71.1047
  A 0.26 0.26 0.0 0 0 220.6350 70.8315
  L 219.8824 56.4712
  Z
  M 270.52 69.88
  L 269.48 70.09
  Q 266.20 70.75 266.03 67.26
  L 265.52 56.90
  Q 265.49 56.40 264.99 56.40
  L 264.61 56.40
  Q 264.21 56.40 264.21 56.81
  Q 264.16 62.37 264.06 64.99
  C 263.87 69.45 265.68 72.79 270.66 71.21
  C 271.67 70.89 272.12 69.99 272.79 69.63
  Q 273.29 69.37 273.75 69.54
  Q 274.08 69.67 274.54 70.66
  Q 274.69 70.99 275.05 71.02
  Q 275.21 71.03 275.32 70.98
  Q 275.60 70.85 275.60 70.56
  L 275.60 57.06
  Q 275.60 56.37 274.91 56.37
  L 274.47 56.37
  Q 273.80 56.37 273.80 57.04
  L 273.80 65.88
  Q 273.80 69.23 270.52 69.88
  Z
  M 298.92 65.23
  C 298.75 68.31 297.43 70.20 294.19 70.15
  C 290.08 70.09 291.04 60.47 291.19 57.36
  A 0.64 0.64 0.0 0 0 290.45 56.70
  L 290.01 56.77
  Q 289.41 56.86 289.36 57.47
  Q 288.71 64.37 289.38 67.64
  Q 289.85 69.99 292.68 71.32
  C 294.56 72.20 298.25 70.70 300.40 70.01
  Q 300.94 69.84 300.94 69.26
  L 300.94 57.10
  A 0.57 0.56 -90.0 0 0 300.38 56.53
  L 299.80 56.53
  Q 299.21 56.53 299.20 57.12
  Q 299.15 61.12 298.92 65.23
  Z
  M 239.9401 68.3094
  A 0.56 0.56 0.0 0 0 239.3685 67.7612
  L 238.4687 67.7801
  A 0.56 0.56 0.0 0 0 237.9206 68.3517
  L 238.0199 73.0906
  A 0.56 0.56 0.0 0 0 238.5915 73.6388
  L 239.4913 73.6199
  A 0.56 0.56 0.0 0 0 240.0394 73.0483
  L 239.9401 68.3094
  Z"
/>
<path fill="#ffffff" d="
  M 20.16 26.06
  Q 9.81 45.07 3.63 66.74
  Q 3.32 67.83 2.61 67.18
  A 0.92 0.91 22.5 0 1 2.31 66.46
  Q 3.52 43.65 12.22 23.22
  C 15.58 15.35 19.93 7.05 26.62 1.91
  A 1.97 1.96 47.8 0 1 29.16 2.04
  C 31.20 3.96 33.48 5.39 31.16 8.41
  Q 24.74 16.73 21.26 24.25
  Q 20.89 25.05 20.71 25.30
  Q 20.18 26.02 20.16 26.06
  Z"
/>
<path fill="#ffffff" d="
  M 36.23 20.64
  Q 36.74 16.25 35.00 7.50
  Q 34.79 6.42 36.15 5.38
  C 38.16 3.84 40.47 1.81 42.56 4.47
  Q 44.54 6.98 45.31 9.97
  Q 45.54 10.89 44.35 12.37
  Q 39.43 18.49 36.80 21.62
  Q 36.07 22.50 36.16 21.35
  Q 36.16 21.24 36.23 20.64
  Z"
/>
<path fill="#0d0d0c" d="
  M 114.49 11.94
  C 108.14 10.69 105.36 17.78 111.97 20.10
  C 117.00 21.86 124.12 23.75 122.58 30.79
  C 121.51 35.68 116.77 37.87 112.06 37.18
  Q 106.46 36.37 104.21 31.07
  A 1.60 1.55 65.4 0 1 104.93 29.03
  Q 105.37 28.82 106.28 29.16
  Q 106.88 29.40 107.22 29.87
  Q 109.68 33.32 112.18 33.86
  Q 116.89 34.87 118.56 30.93
  C 120.62 26.06 113.54 24.61 109.01 22.77
  Q 106.17 21.61 104.94 17.53
  C 102.10 8.04 119.55 4.24 121.81 15.23
  Q 121.91 15.73 121.42 15.87
  C 117.64 16.92 117.68 12.57 114.49 11.94
  Z"
/>
<path fill="#ffffff" d="
  M 6.14 66.17
  C 10.43 48.09 19.85 28.89 30.15 12.68
  Q 31.43 10.66 33.02 9.31
  A 0.44 0.43 -22.0 0 1 33.74 9.61
  Q 33.98 13.27 34.80 21.24
  C 35.03 23.44 35.05 25.02 33.86 27.16
  Q 28.36 37.04 25.17 47.42
  Q 23.45 53.04 21.63 55.83
  Q 17.17 62.67 10.95 67.35
  C 9.29 68.60 7.77 68.29 6.44 67.11
  A 0.96 0.96 0.0 0 1 6.14 66.17
  Z"
/>
<path fill="#ffffff" d="
  M 52.15 15.07
  Q 52.19 15.48 51.84 15.84
  Q 50.34 17.40 48.48 18.48
  Q 48.04 18.74 47.99 18.22
  Q 47.88 17.19 47.72 15.51
  Q 47.55 13.82 47.45 12.79
  Q 47.41 12.27 47.89 12.44
  Q 49.92 13.14 51.69 14.37
  Q 52.10 14.66 52.15 15.07
  Z"
/>
<path fill="#ffffff" d="
  M 31.53 44.59
  Q 35.38 37.38 36.18 27.99
  C 36.50 24.30 42.58 17.14 45.43 14.59
  A 0.28 0.28 0.0 0 1 45.89 14.80
  C 45.89 18.55 46.24 21.39 44.05 24.28
  Q 31.30 41.05 28.33 61.78
  Q 27.30 68.95 28.34 75.62
  A 1.06 0.93 -32.2 0 1 28.10 76.42
  L 24.87 80.33
  A 0.42 0.42 0.0 0 1 24.17 80.25
  Q 22.29 76.52 22.59 71.55
  C 22.98 64.81 23.44 58.10 26.85 52.61
  Q 29.71 47.99 31.53 44.59
  Z"
/>
<path fill="#0d0d0c" d="
  M 139.74 16.56
  L 140.59 15.71
  A 1.03 1.03 0.0 0 1 142.24 15.98
  C 144.33 20.15 146.63 23.66 146.57 27.15
  C 146.44 34.52 140.34 37.56 133.47 37.10
  Q 132.96 37.07 132.52 37.35
  Q 131.59 37.93 130.61 38.18
  A 1.40 1.39 -7.1 0 1 128.87 36.83
  L 128.87 34.78
  Q 128.87 34.29 128.63 33.86
  Q 126.82 30.67 126.66 30.11
  Q 125.18 24.86 127.54 21.55
  C 130.57 17.28 134.07 16.82 138.91 16.90
  Q 139.39 16.91 139.74 16.56
  Z
  M 131.50 31.40
  L 137.92 20.47
  A 0.10 0.10 0.0 0 0 137.88 20.33
  L 137.86 20.31
  A 6.28 4.83 -59.6 0 0 130.51 23.29
  L 130.35 23.56
  A 6.28 4.83 -59.6 0 0 131.34 31.42
  L 131.36 31.44
  A 0.10 0.10 0.0 0 0 131.50 31.40
  Z
  M 140.59 21.94
  L 134.41 33.43
  A 0.10 0.10 0.0 0 0 134.45 33.56
  L 134.48 33.58
  A 6.53 5.29 -61.7 0 0 142.23 30.33
  L 142.32 30.18
  A 6.53 5.29 -61.7 0 0 140.76 21.92
  L 140.73 21.90
  A 0.10 0.10 0.0 0 0 140.59 21.94
  Z"
/>
<path fill="#ffffff" d="
  M 55.83 33.99
  Q 56.51 24.46 55.04 16.53
  Q 54.94 15.97 55.49 15.80
  C 61.70 13.90 62.61 21.41 63.19 26.04
  A 0.64 0.53 66.3 0 1 63.05 26.53
  L 55.93 34.02
  Q 55.82 34.14 55.83 33.99
  Z"
/>
<path fill="#0d0d0c" d="
  M 155.44 18.71
  L 159.74 17.03
  Q 161.53 16.34 161.94 18.20
  Q 162.33 19.93 160.76 20.19
  C 154.50 21.22 155.03 24.79 154.96 30.34
  Q 154.92 33.30 154.94 35.94
  Q 154.95 37.05 153.84 37.05
  L 152.78 37.05
  A 1.35 1.34 90.0 0 1 151.44 35.70
  L 151.44 18.11
  A 1.18 1.18 0.0 0 1 153.45 17.27
  L 154.74 18.57
  Q 155.04 18.86 155.44 18.71
  Z"
/>
<path fill="#0d0d0c" d="
  M 167.70 27.90
  Q 166.82 27.90 167.06 28.75
  C 168.65 34.21 173.39 35.77 177.96 32.76
  Q 180.09 31.35 181.36 30.48
  Q 181.96 30.07 182.05 30.08
  Q 183.07 30.25 182.55 31.25
  Q 179.09 37.92 172.31 37.15
  C 161.83 35.97 160.57 20.34 170.28 17.33
  C 177.00 15.25 182.97 19.57 183.39 26.28
  Q 183.49 27.90 181.86 27.90
  L 167.70 27.90
  Z
  M 167.46 25.29
  L 179.26 25.27
  A 0.11 0.11 0.0 0 0 179.37 25.16
  L 179.37 25.09
  A 5.87 5.32 -0.1 0 0 173.50 19.78
  L 173.22 19.78
  A 5.87 5.32 -0.1 0 0 167.35 25.11
  L 167.35 25.18
  A 0.11 0.11 0.0 0 0 167.46 25.29
  Z"
/>
<path fill="#0d0d0c" d="
  M 192.25 18.45
  C 196.57 16.90 201.18 15.31 203.90 20.27
  C 205.91 23.92 205.07 31.24 204.89 36.34
  Q 204.86 37.09 204.11 37.09
  L 202.60 37.09
  A 0.82 0.82 0.0 0 1 201.78 36.26
  Q 201.85 30.34 201.80 25.76
  C 201.77 23.16 200.70 19.71 197.52 19.76
  C 192.62 19.83 191.59 23.36 191.43 27.82
  Q 191.29 31.72 191.38 35.99
  Q 191.40 37.01 190.38 37.01
  L 189.12 37.01
  Q 187.92 37.01 187.93 35.82
  L 187.98 18.75
  Q 187.99 15.52 190.59 17.89
  Q 190.88 18.16 191.48 18.42
  Q 191.86 18.59 192.25 18.45
  Z"
/>
<path fill="#0d0d0c" d="
  M 217.07 19.36
  Q 214.78 18.77 213.77 20.91
  L 213.60 21.28
  Q 212.62 23.35 214.77 24.13
  C 218.10 25.34 221.51 25.54 223.63 27.98
  C 226.29 31.02 224.26 35.39 220.97 36.74
  Q 216.18 38.70 211.30 35.06
  Q 210.11 34.17 209.84 32.72
  Q 209.65 31.69 209.84 30.95
  Q 210.16 29.76 211.04 30.63
  Q 213.95 33.50 216.35 34.38
  Q 218.75 35.26 220.66 33.06
  Q 220.70 33.02 220.72 32.97
  Q 221.96 30.40 219.53 29.47
  Q 213.65 27.22 213.48 27.14
  C 207.48 24.46 210.12 17.72 215.67 16.91
  Q 220.89 16.14 223.65 20.71
  A 1.60 1.27 67.7 0 1 222.98 23.01
  Q 222.70 23.05 222.04 22.81
  Q 221.63 22.67 221.28 22.32
  Q 218.63 19.75 217.07 19.36
  Z"
/>
<path fill="#0d0d0c" d="
  M 231.98 27.88
  Q 231.10 27.88 231.34 28.73
  C 232.93 34.19 237.67 35.75 242.24 32.74
  Q 244.37 31.33 245.64 30.46
  Q 246.24 30.05 246.33 30.06
  Q 247.35 30.23 246.83 31.23
  Q 243.37 37.90 236.59 37.13
  C 226.11 35.95 224.85 20.32 234.56 17.31
  C 241.28 15.22 247.25 19.54 247.67 26.26
  Q 247.77 27.88 246.14 27.88
  L 231.98 27.88
  Z
  M 231.68 25.20
  L 243.38 25.26
  A 0.12 0.12 0.0 0 0 243.50 25.14
  L 243.50 25.05
  A 5.89 5.17 0.3 0 0 237.63 19.85
  L 237.47 19.85
  A 5.89 5.17 0.3 0 0 231.56 24.99
  L 231.56 25.08
  A 0.12 0.12 0.0 0 0 231.68 25.20
  Z"
/>
<path fill="#0d0d0c" d="
  M 255.64 18.45
  Q 256.02 18.62 256.41 18.48
  C 260.70 16.90 265.28 15.28 268.03 20.20
  C 270.07 23.83 269.28 31.13 269.14 36.22
  Q 269.12 36.96 268.37 36.97
  L 266.87 36.98
  A 0.82 0.82 0.0 0 1 266.04 36.16
  Q 266.07 30.26 265.98 25.69
  C 265.93 23.10 264.84 19.67 261.67 19.74
  C 256.78 19.85 255.78 23.38 255.66 27.82
  Q 255.55 31.71 255.67 35.97
  Q 255.70 36.99 254.68 36.99
  L 253.43 37.00
  Q 252.23 37.01 252.23 35.83
  L 252.15 18.81
  Q 252.14 15.59 254.75 17.93
  Q 255.04 18.20 255.64 18.45
  Z"
/>
<path fill="#ffffff" d="
  M 53.57 18.61
  Q 54.44 26.71 54.12 36.19
  Q 54.09 37.15 52.90 38.91
  Q 45.05 50.59 40.84 64.45
  Q 40.82 64.49 39.94 69.10
  Q 38.80 75.07 32.92 77.06
  Q 31.94 77.39 31.38 77.09
  A 0.72 0.71 29.2 0 1 31.10 76.11
  Q 32.80 73.17 35.30 68.60
  Q 46.21 48.65 47.36 25.22
  Q 47.40 24.42 47.95 21.82
  A 1.28 1.26 77.7 0 1 48.41 21.09
  L 52.34 18.08
  Q 53.43 17.25 53.57 18.61
  Z"
/>
<path fill="#ffffff" d="
  M 131.50 31.40
  A 0.10 0.10 0.0 0 1 131.36 31.44
  L 131.34 31.42
  A 6.28 4.83 -59.6 0 1 130.35 23.56
  L 130.51 23.29
  A 6.28 4.83 -59.6 0 1 137.86 20.31
  L 137.88 20.33
  A 0.10 0.10 0.0 0 1 137.92 20.47
  L 131.50 31.40
  Z"
/>
<path fill="#ffffff" d="
  M 167.46 25.29
  A 0.11 0.11 0.0 0 1 167.35 25.18
  L 167.35 25.11
  A 5.87 5.32 -0.1 0 1 173.22 19.78
  L 173.50 19.78
  A 5.87 5.32 -0.1 0 1 179.37 25.09
  L 179.37 25.16
  A 0.11 0.11 0.0 0 1 179.26 25.27
  L 167.46 25.29
  Z"
/>
<path fill="#ffffff" d="
  M 231.68 25.20
  A 0.12 0.12 0.0 0 1 231.56 25.08
  L 231.56 24.99
  A 5.89 5.17 0.3 0 1 237.47 19.85
  L 237.63 19.85
  A 5.89 5.17 0.3 0 1 243.50 25.05
  L 243.50 25.14
  A 0.12 0.12 0.0 0 1 243.38 25.26
  L 231.68 25.20
  Z"
/>
<path fill="#ffffff" d="
  M 140.59 21.94
  A 0.10 0.10 0.0 0 1 140.73 21.90
  L 140.76 21.92
  A 6.53 5.29 -61.7 0 1 142.32 30.18
  L 142.23 30.33
  A 6.53 5.29 -61.7 0 1 134.48 33.58
  L 134.45 33.56
  A 0.10 0.10 0.0 0 1 134.41 33.43
  L 140.59 21.94
  Z"
/>
<path fill="#ffffff" d="
  M 31.34 72.32
  Q 31.01 72.87 30.92 73.01
  Q 30.26 73.92 30.10 72.86
  Q 29.49 68.70 30.00 64.06
  Q 32.32 42.94 44.86 26.27
  Q 45.52 25.40 45.45 26.49
  Q 43.83 50.98 31.34 72.32
  Z"
/>
<path fill="#ffffff" d="
  M 63.82 44.95
  Q 63.50 45.43 63.62 44.86
  Q 65.49 36.26 65.31 29.12
  A 1.64 1.63 -73.7 0 1 67.86 27.72
  C 70.14 29.27 72.79 33.59 70.57 36.15
  Q 66.66 40.65 63.82 44.95
  Z"
/>
<path fill="#ffffff" d="
  M 63.74 29.49
  Q 63.69 30.09 62.07 44.12
  Q 61.68 47.46 60.32 50.42
  Q 59.19 52.87 52.67 66.67
  C 50.78 70.68 46.06 77.67 41.37 78.51
  Q 40.88 78.60 40.60 78.18
  Q 39.57 76.61 40.28 75.03
  C 42.07 71.06 45.83 66.43 47.89 62.68
  Q 52.55 54.20 54.49 44.68
  Q 55.80 38.26 56.79 36.55
  Q 59.12 32.54 63.49 29.34
  Q 63.77 29.14 63.74 29.49
  Z"
/>
<path fill="#ffffff" d="
  M 32.40 33.45
  A 0.12 0.12 0.0 0 1 32.55 33.38
  L 32.58 33.39
  A 7.41 1.17 -68.7 0 1 30.98 40.72
  L 30.85 41.06
  A 7.41 1.17 -68.7 0 1 27.07 47.54
  L 27.04 47.53
  A 0.12 0.12 0.0 0 1 26.97 47.37
  L 32.40 33.45
  Z"
/>
<path fill="#ffffff" d="
  M 53.53 70.48
  C 54.32 67.76 56.54 64.26 57.51 62.15
  C 60.87 54.86 62.73 50.15 65.98 45.20
  Q 68.27 41.71 71.19 38.09
  Q 71.92 37.18 72.00 38.34
  Q 73.13 55.11 60.69 66.90
  Q 57.74 69.69 54.28 71.03
  Q 53.86 71.19 53.62 70.92
  A 0.47 0.45 34.7 0 1 53.53 70.48
  Z"
/>
<path fill="#ffffff" d="
  M 48.99 56.00
  Q 46.83 60.95 42.51 68.04
  Q 42.10 68.71 42.18 67.92
  C 42.62 63.59 44.51 59.22 46.41 54.87
  C 48.31 50.53 50.22 46.16 53.10 42.89
  Q 53.62 42.30 53.40 43.06
  Q 51.15 51.05 48.99 56.00
  Z"
/>
<path fill="#0d0d0c" d="
  M 111.43 50.02
  Q 111.89 50.02 112.09 50.46
  Q 116.13 59.53 120.31 71.20
  A 0.31 0.31 0.0 0 1 119.89 71.59
  C 117.99 70.70 116.44 66.53 116.06 65.68
  A 1.50 1.50 0.0 0 0 114.87 64.81
  Q 114.36 64.75 111.30 64.73
  Q 108.24 64.70 107.73 64.75
  A 1.50 1.50 0.0 0 0 106.52 65.60
  C 106.13 66.44 104.50 70.58 102.59 71.44
  A 0.31 0.31 0.0 0 1 102.17 71.04
  Q 106.56 59.45 110.76 50.45
  Q 110.96 50.02 111.43 50.02
  Z
  M 114.68 61.50
  L 111.83 54.18
  Q 111.16 52.47 110.53 54.19
  L 107.59 62.14
  A 0.72 0.71 -80.8 0 0 108.28 63.10
  L 114.47 62.93
  A 0.72 0.68 72.1 0 0 115.00 61.83
  Q 114.95 61.74 114.78 61.66
  Q 114.73 61.64 114.68 61.50
  Z"
/>
<path fill="#0d0d0c" d="
  M 136.24 56.01
  L 137.21 56.08
  Q 138.03 56.13 137.45 56.71
  L 136.30 57.86
  Q 135.95 58.21 135.87 58.71
  Q 134.94 64.63 136.17 70.49
  A 0.59 0.59 0.0 0 1 135.47 71.18
  L 135.18 71.12
  A 1.80 1.79 -84.1 0 1 133.76 69.36
  L 133.76 58.38
  Q 133.76 57.83 133.20 57.83
  L 131.99 57.83
  A 0.63 0.63 0.0 0 1 131.36 57.20
  L 131.36 56.77
  Q 131.36 56.57 131.55 56.49
  L 133.25 55.83
  Q 133.66 55.67 133.75 55.23
  C 134.17 53.17 134.46 50.70 137.18 50.64
  Q 139.21 50.60 137.62 51.87
  Q 136.06 53.12 135.69 55.31
  Q 135.57 55.97 136.24 56.01
  Z"
/>
<rect fill="#0d0d0c" x="-0.93" y="-10.04" transform="translate(122.14,60.88) rotate(-0.8)" width="1.86" height="20.08" rx="0.90"/>
<path fill="#0d0d0c" d="
  M 369.53 69.16
  Q 363.86 73.69 359.60 69.20
  Q 358.11 67.63 357.89 65.10
  Q 357.62 62.13 358.45 60.35
  Q 361.88 52.99 369.79 57.77
  Q 370.18 58.01 370.07 57.57
  Q 369.25 54.39 369.45 51.56
  A 0.69 0.64 85.6 0 1 369.94 50.94
  L 370.22 50.87
  Q 371.18 50.64 371.22 51.53
  Q 371.61 61.60 371.28 70.04
  Q 371.28 70.20 371.17 70.39
  A 0.57 0.57 0.0 0 1 370.26 70.49
  Q 369.89 70.11 370.00 69.44
  Q 370.12 68.69 369.53 69.16
  Z
  M 364.2156 69.8395
  A 6.33 4.94 93.3 0 0 369.5118 63.8044
  A 6.33 4.94 93.3 0 0 364.9444 57.2005
  A 6.33 4.94 93.3 0 0 359.6482 63.2356
  A 6.33 4.94 93.3 0 0 364.2156 69.8395
  Z"
/>
<path fill="#0d0d0c" d="
  M 283.16 57.91
  Q 283.18 57.61 282.87 57.59
  L 280.10 57.41
  Q 279.90 57.39 279.90 57.59
  L 279.90 70.38
  Q 279.90 70.93 279.36 71.01
  L 278.68 71.12
  Q 278.03 71.22 278.03 70.56
  L 278.03 51.84
  Q 278.03 51.01 278.86 51.06
  L 279.20 51.08
  Q 279.85 51.12 279.85 51.78
  L 279.85 56.08
  Q 279.85 56.57 280.33 56.49
  L 282.54 56.15
  A 0.53 0.52 85.5 0 0 282.98 55.63
  L 282.98 52.85
  Q 282.98 52.03 283.80 52.03
  L 284.19 52.03
  A 0.88 0.88 0.0 0 1 285.07 52.91
  L 285.07 55.78
  A 0.45 0.45 0.0 0 0 285.55 56.23
  Q 287.22 56.10 288.40 56.48
  Q 289.18 56.72 288.44 57.06
  Q 287.68 57.41 285.50 57.70
  Q 284.99 57.77 284.96 58.28
  C 284.73 62.14 284.60 66.47 286.23 69.15
  Q 286.95 70.33 287.22 71.06
  Q 287.42 71.63 286.83 71.51
  Q 283.73 70.89 283.28 68.29
  Q 282.70 64.98 283.16 57.91
  Z"
/>
<path fill="#0d0d0c" d="
  M 390.39 57.01
  Q 393.01 55.83 396.47 56.17
  A 1.32 1.32 0.0 0 1 397.31 56.59
  Q 399.73 59.22 399.70 61.80
  Q 399.63 66.66 400.01 70.37
  Q 400.08 71.07 399.38 71.07
  L 398.86 71.07
  A 0.88 0.88 0.0 0 1 397.98 70.22
  L 397.63 60.96
  Q 397.49 57.36 393.84 57.47
  Q 393.69 57.47 393.58 57.47
  Q 390.05 57.54 389.94 61.13
  L 389.68 69.21
  A 1.96 1.41 77.9 0 1 389.08 70.58
  Q 388.31 71.17 387.57 70.70
  Q 386.91 70.28 387.66 70.05
  Q 387.79 70.01 387.91 69.97
  Q 388.17 69.88 388.17 69.61
  L 388.17 51.31
  Q 388.17 50.98 388.51 50.98
  L 388.76 50.98
  Q 389.06 50.98 389.11 51.27
  L 389.96 56.78
  A 0.31 0.31 0.0 0 0 390.39 57.01
  Z"
/>
<path fill="#0d0d0c" d="
  M 202.14 63.20
  Q 201.97 64.15 202.31 66.04
  Q 202.40 66.54 202.21 67.01
  C 200.46 71.28 195.13 73.45 191.67 69.52
  C 187.71 65.01 189.99 55.02 197.18 55.85
  C 199.87 56.16 201.65 58.63 202.28 60.95
  A 0.84 0.80 -87.4 0 0 202.74 61.48
  Q 203.67 61.89 203.96 60.91
  Q 206.19 53.52 213.77 57.02
  Q 215.18 57.67 214.94 56.13
  L 214.28 51.88
  Q 214.21 51.43 214.66 51.36
  L 215.29 51.26
  Q 215.81 51.18 215.84 51.70
  C 215.96 53.70 216.62 55.20 216.22 57.05
  Q 215.78 59.05 216.31 62.50
  Q 216.68 64.86 216.01 69.53
  Q 215.94 70.04 215.42 70.11
  C 212.78 70.45 209.39 72.98 206.70 70.51
  Q 203.66 67.73 203.10 63.23
  A 0.49 0.48 46.6 0 0 202.14 63.20
  Z
  M 192.13 62.51
  L 200.29 62.53
  A 0.24 0.24 0.0 0 0 200.53 62.30
  L 200.53 62.11
  A 4.83 4.25 -89.8 0 0 196.30 57.26
  L 196.16 57.26
  A 4.83 4.25 -89.8 0 0 191.89 62.07
  L 191.89 62.26
  A 0.24 0.24 0.0 0 0 192.13 62.51
  Z
  M 210.0616 70.1392
  A 6.47 4.79 89.1 0 0 214.7494 63.5948
  A 6.47 4.79 89.1 0 0 209.8584 57.2008
  A 6.47 4.79 89.1 0 0 205.1706 63.7452
  A 6.47 4.79 89.1 0 0 210.0616 70.1392
  Z
  M 192.04 63.81
  A 0.29 0.29 0.0 0 0 191.75 64.07
  Q 191.45 67.61 194.08 69.39
  C 197.68 71.84 200.41 67.60 201.59 64.80
  A 0.71 0.71 0.0 0 0 200.94 63.81
  L 192.04 63.81
  Z"
/>
<path fill="#0d0d0c" d="
  M 221.15 52.54
  Q 221.05 52.96 220.63 53.13
  Q 220.34 53.25 219.92 53.12
  Q 216.92 52.22 217.06 51.61
  Q 217.20 50.99 220.29 51.48
  Q 220.73 51.54 220.94 51.77
  Q 221.25 52.11 221.15 52.54
  Z"
/>
<path fill="#0d0d0c" d="
  M 381.27 57.71
  L 379.55 57.71
  Q 378.83 57.71 378.92 57.00
  Q 379.04 56.17 380.01 56.28
  Q 381.46 56.46 381.59 55.03
  L 381.81 52.70
  Q 381.88 52.02 382.56 52.02
  L 382.98 52.02
  Q 383.80 52.02 383.64 52.82
  L 383.18 55.13
  Q 382.93 56.38 384.37 56.28
  Q 385.88 56.18 386.93 56.75
  Q 387.61 57.13 386.85 57.33
  Q 385.86 57.60 384.28 57.42
  A 0.92 0.91 4.8 0 0 383.27 58.27
  Q 383.11 61.08 383.30 64.44
  Q 383.48 67.46 383.60 67.89
  Q 384.19 69.96 386.71 70.37
  Q 387.41 70.49 386.77 70.79
  C 385.54 71.37 382.84 71.55 382.14 69.75
  C 380.90 66.57 381.33 61.20 381.75 58.27
  Q 381.83 57.71 381.27 57.71
  Z"
/>
<path fill="#0d0d0c" d="
  M 446.50 56.05
  Q 448.79 55.96 450.27 57.71
  Q 450.64 58.15 451.03 57.73
  Q 452.99 55.60 456.75 56.16
  Q 460.84 56.76 461.09 61.03
  Q 461.17 62.37 460.29 61.28
  Q 459.76 60.61 458.84 58.74
  A 1.63 1.61 -88.3 0 0 458.18 58.03
  Q 455.69 56.59 452.55 58.05
  A 1.03 1.00 -7.4 0 0 451.99 58.76
  C 451.50 61.12 453.47 61.97 455.58 62.39
  Q 458.51 62.97 460.60 64.68
  C 463.17 66.78 461.33 68.74 459.39 70.26
  C 455.63 73.21 453.80 71.02 450.60 68.92
  Q 450.14 68.61 450.14 68.06
  L 450.14 67.12
  Q 450.14 65.05 451.39 66.69
  C 453.62 69.60 455.85 72.11 459.41 68.43
  A 2.05 2.04 -29.6 0 0 459.93 66.55
  C 458.98 62.47 450.16 65.69 450.37 59.52
  A 2.04 2.04 0.0 0 0 448.33 57.40
  L 447.27 57.40
  Q 445.89 57.40 445.91 58.78
  C 445.95 61.92 445.02 71.16 448.98 69.91
  Q 449.33 69.80 449.33 70.16
  L 449.33 70.62
  Q 449.33 71.03 448.92 71.09
  Q 444.73 71.74 444.37 67.96
  Q 443.97 63.71 444.31 59.85
  Q 444.60 56.68 441.64 57.72
  L 440.58 58.10
  Q 437.63 59.15 437.63 62.28
  L 437.63 69.96
  A 0.90 0.89 79.6 0 1 437.06 70.80
  L 436.50 71.02
  Q 435.93 71.24 435.87 70.63
  Q 435.21 63.79 436.12 57.76
  A 0.68 0.67 -0.6 0 1 436.68 57.19
  L 443.86 56.07
  Q 444.33 56.00 444.33 55.52
  L 444.33 52.77
  A 0.64 0.64 0.0 0 1 444.97 52.13
  L 445.53 52.13
  Q 445.90 52.13 445.90 52.50
  L 445.90 55.48
  Q 445.90 56.08 446.50 56.05
  Z"
/>
<path fill="#ffffff" d="
  M 114.78 61.66
  Q 114.95 61.74 115.00 61.83
  A 0.72 0.68 72.1 0 1 114.47 62.93
  L 108.28 63.10
  A 0.72 0.71 -80.8 0 1 107.59 62.14
  L 110.53 54.19
  Q 111.16 52.47 111.83 54.18
  L 114.68 61.50
  Q 114.73 61.64 114.78 61.66
  Z"
/>
<path fill="#0d0d0c" d="
  M 144.5902 71.4693
  A 7.83 7.13 93.0 0 1 137.8798 63.2768
  A 7.83 7.13 93.0 0 1 145.4098 55.8307
  A 7.83 7.13 93.0 0 1 152.1202 64.0232
  A 7.83 7.13 93.0 0 1 144.5902 71.4693
  Z
  M 144.9453 69.7797
  A 6.18 5.11 90.6 0 0 150.1197 63.6535
  A 6.18 5.11 90.6 0 0 145.0747 57.4203
  A 6.18 5.11 90.6 0 0 139.9003 63.5465
  A 6.18 5.11 90.6 0 0 144.9453 69.7797
  Z"
/>
<path fill="#0d0d0c" d="
  M 155.21 57.29
  A 1.31 1.31 0.0 0 0 156.86 57.46
  Q 158.61 56.29 160.28 56.09
  Q 160.74 56.04 160.83 56.50
  Q 160.86 56.63 160.82 56.75
  A 0.77 0.36 -82.4 0 1 160.50 57.25
  L 156.61 59.05
  A 1.30 1.29 78.9 0 0 155.86 60.18
  L 155.64 66.75
  Q 155.63 67.00 155.50 68.13
  Q 155.09 71.92 153.71 70.38
  Q 153.56 70.22 153.59 69.99
  Q 154.44 63.04 153.32 57.34
  A 0.59 0.59 0.0 0 1 153.96 56.64
  Q 154.65 56.71 155.21 57.29
  Z"
/>
<path fill="#0d0d0c" d="
  M 178.16 57.84
  Q 178.70 58.49 179.24 57.84
  Q 180.61 56.20 182.29 55.98
  C 186.92 55.37 187.89 57.96 187.76 62.04
  Q 187.62 66.70 188.20 70.63
  Q 188.28 71.21 187.70 71.17
  L 187.21 71.14
  Q 186.39 71.08 186.35 70.27
  L 185.91 59.97
  Q 185.79 56.99 182.83 57.37
  L 182.59 57.42
  Q 179.51 57.97 179.34 61.11
  L 178.81 70.47
  Q 178.78 71.10 178.16 71.05
  L 177.77 71.03
  A 0.75 0.75 0.0 0 1 177.07 70.26
  L 177.25 61.00
  Q 177.32 57.57 173.96 57.53
  Q 173.88 57.53 173.82 57.53
  Q 170.23 57.47 170.06 60.96
  L 169.59 70.46
  Q 169.56 71.08 168.94 71.08
  L 168.64 71.08
  Q 168.21 71.08 168.21 70.65
  L 168.21 58.03
  A 1.41 1.40 87.3 0 1 169.48 56.63
  C 173.49 56.22 175.84 55.06 178.16 57.84
  Z"
/>
<path fill="#0d0d0c" d="
  M 232.23 60.91
  L 231.93 58.97
  Q 231.69 57.46 230.17 57.26
  C 225.47 56.67 226.48 59.45 223.52 60.71
  Q 222.55 61.12 222.90 60.13
  Q 224.46 55.75 229.27 55.81
  C 235.32 55.88 234.25 62.60 234.25 66.90
  C 234.25 68.19 234.82 69.25 235.03 70.12
  Q 235.45 71.81 233.98 71.09
  Q 233.70 70.95 233.38 70.46
  A 1.59 1.59 0.0 0 0 231.07 70.07
  C 227.48 72.84 224.73 71.44 222.36 68.12
  Q 221.63 67.10 221.98 65.04
  Q 222.07 64.54 222.52 64.31
  Q 226.70 62.15 230.91 62.38
  Q 232.48 62.46 232.23 60.91
  Z
  M 224.84 64.70
  Q 223.34 65.54 224.08 67.09
  Q 225.72 70.57 228.82 69.73
  Q 233.06 68.59 232.11 64.23
  Q 232.01 63.74 231.51 63.70
  Q 227.34 63.30 224.84 64.70
  Z"
/>
<path fill="#0d0d0c" d="
  M 251.45 63.69
  C 251.50 66.99 253.53 70.43 257.18 69.79
  C 259.27 69.42 260.80 66.30 262.07 65.35
  Q 262.56 64.97 262.56 65.53
  Q 262.56 67.77 261.15 69.10
  C 255.80 74.16 249.56 69.80 249.47 63.72
  C 249.37 57.64 255.47 53.08 260.98 57.97
  Q 262.43 59.26 262.50 61.50
  Q 262.51 62.06 262.01 61.69
  C 260.71 60.78 259.09 57.71 256.98 57.41
  C 253.31 56.88 251.40 60.39 251.45 63.69
  Z"
/>
<path fill="#0d0d0c" d="
  M 303.98 57.95
  L 309.02 55.98
  A 0.63 0.62 48.1 0 1 309.51 56.01
  Q 310.06 56.30 309.87 56.70
  Q 309.78 56.90 309.61 57.04
  C 308.22 58.17 306.57 59.05 306.03 60.52
  C 304.76 63.92 305.19 67.17 305.28 70.56
  A 0.55 0.55 0.0 0 1 304.73 71.13
  L 304.43 71.13
  Q 303.61 71.13 303.61 70.31
  L 303.61 58.49
  Q 303.61 58.09 303.98 57.95
  Z"
/>
<path fill="#0d0d0c" d="
  M 316.1721 71.6505
  A 7.94 6.65 92.8 0 1 309.9179 63.3951
  A 7.94 6.65 92.8 0 1 316.9479 55.7895
  A 7.94 6.65 92.8 0 1 323.2021 64.0449
  A 7.94 6.65 92.8 0 1 316.1721 71.6505
  Z
  M 312.43 62.31
  L 320.91 62.55
  A 0.27 0.27 0.0 0 0 321.18 62.29
  L 321.19 62.10
  A 4.62 4.51 -88.4 0 0 316.81 57.35
  L 316.81 57.35
  A 4.62 4.51 -88.4 0 0 312.17 61.84
  L 312.17 62.03
  A 0.27 0.27 0.0 0 0 312.43 62.31
  Z
  M 321.43 63.73
  L 312.09 63.77
  A 0.29 0.29 0.0 0 0 311.81 64.07
  L 311.81 64.26
  A 5.66 4.81 89.7 0 0 316.65 69.89
  L 316.95 69.89
  A 5.66 4.81 89.7 0 0 321.73 64.20
  L 321.73 64.01
  A 0.29 0.29 0.0 0 0 321.43 63.73
  Z"
/>
<path fill="#0d0d0c" d="
  M 338.82 62.55
  Q 340.10 62.68 340.10 61.39
  L 340.10 59.54
  Q 340.10 57.87 338.47 57.46
  Q 333.71 56.28 331.93 61.01
  Q 331.81 61.32 331.48 61.37
  Q 331.23 61.40 331.07 61.21
  A 0.29 0.26 26.4 0 1 331.00 61.03
  Q 330.91 58.07 333.46 56.61
  C 335.10 55.68 339.30 55.50 340.72 57.01
  C 342.69 59.08 342.07 65.73 341.92 68.87
  Q 341.89 69.45 341.34 69.62
  C 337.90 70.65 334.98 72.85 331.55 70.09
  Q 329.96 68.80 330.01 66.91
  C 330.13 62.71 335.69 62.23 338.82 62.55
  Z
  M 339.80 63.65
  C 337.42 63.37 335.23 63.61 333.38 64.38
  Q 331.06 65.33 332.16 67.57
  L 332.53 68.34
  Q 333.71 70.75 336.28 69.95
  Q 340.86 68.53 340.16 63.94
  A 0.42 0.33 -0.4 0 0 339.80 63.65
  Z"
/>
<path fill="#0d0d0c" d="
  M 346.64 57.61
  C 349.61 54.69 355.81 55.07 355.84 60.54
  Q 355.87 67.04 356.31 70.53
  Q 356.42 71.43 355.55 71.16
  L 355.26 71.07
  A 1.35 1.34 7.9 0 1 354.33 69.85
  Q 354.21 67.03 354.04 61.30
  C 353.96 58.53 353.28 56.78 350.09 57.27
  C 348.25 57.55 348.12 58.79 346.91 59.63
  A 1.08 1.08 0.0 0 0 346.44 60.46
  L 345.79 70.37
  Q 345.76 70.85 345.30 70.94
  L 344.09 71.19
  Q 343.71 71.27 343.73 70.87
  L 344.63 57.19
  Q 344.67 56.56 345.24 56.82
  Q 345.66 57.02 345.90 57.49
  Q 346.19 58.05 346.64 57.61
  Z"
/>
<path fill="#0d0d0c" d="
  M 413.82 65.33
  Q 414.40 67.30 412.87 68.80
  Q 412.54 69.13 412.07 69.17
  Q 411.41 69.22 411.20 69.91
  Q 411.06 70.37 410.63 70.61
  C 403.00 74.81 398.94 64.44 402.22 59.02
  Q 404.04 56.00 407.40 55.81
  C 412.23 55.55 414.75 60.02 413.79 64.38
  Q 413.69 64.86 413.82 65.33
  Z
  M 403.50 62.38
  L 411.67 62.66
  A 0.41 0.41 0.0 0 0 412.10 62.27
  L 412.11 61.94
  A 4.62 4.34 -88.0 0 0 407.93 57.17
  L 407.61 57.16
  A 4.62 4.34 -88.0 0 0 403.12 61.62
  L 403.10 61.95
  A 0.41 0.41 0.0 0 0 403.50 62.38
  Z
  M 410.69 68.55
  Q 410.78 68.53 411.04 68.51
  Q 411.52 68.46 411.68 68.00
  Q 412.29 66.17 412.43 66.03
  Q 414.54 63.82 411.38 63.79
  L 403.50 63.73
  Q 402.93 63.73 402.94 64.48
  Q 403.00 67.97 406.31 69.85
  C 407.93 70.77 408.77 69.85 410.12 68.84
  A 1.56 0.67 -50.3 0 1 410.69 68.55
  Z"
/>
<path fill="#0d0d0c" d="
  M 432.58 70.23
  Q 432.07 68.98 430.96 69.76
  Q 425.98 73.26 422.66 69.93
  Q 420.81 68.08 421.35 65.23
  Q 421.45 64.72 421.89 64.45
  Q 425.61 62.21 430.45 62.42
  Q 430.92 62.44 430.97 61.96
  Q 431.14 60.00 430.31 58.16
  Q 430.09 57.67 429.58 57.52
  Q 427.18 56.79 424.94 57.84
  Q 424.48 58.05 424.25 58.51
  Q 423.24 60.52 422.54 61.19
  Q 422.01 61.70 422.07 60.97
  Q 422.36 57.46 424.60 56.62
  C 429.26 54.86 433.20 56.04 433.06 61.67
  Q 432.99 64.25 433.10 67.57
  Q 433.11 68.08 433.29 68.55
  L 434.15 70.73
  Q 434.37 71.31 433.79 71.10
  Q 432.78 70.73 432.58 70.23
  Z
  M 430.47 63.51
  C 428.15 63.39 426.05 63.77 424.31 64.63
  Q 422.13 65.70 423.34 67.80
  L 423.75 68.52
  Q 425.05 70.77 427.48 69.83
  Q 431.82 68.15 430.84 63.76
  A 0.41 0.32 -4.3 0 0 430.47 63.51
  Z"
/>
<rect fill="#0d0d0c" x="-0.93" y="-7.45" transform="translate(219.33,63.70) rotate(-3.0)" width="1.86" height="14.90" rx="0.26"/>
<path fill="#0d0d0c" d="
  M 273.80 65.88
  L 273.80 57.04
  Q 273.80 56.37 274.47 56.37
  L 274.91 56.37
  Q 275.60 56.37 275.60 57.06
  L 275.60 70.56
  Q 275.60 70.85 275.32 70.98
  Q 275.21 71.03 275.05 71.02
  Q 274.69 70.99 274.54 70.66
  Q 274.08 69.67 273.75 69.54
  Q 273.29 69.37 272.79 69.63
  C 272.12 69.99 271.67 70.89 270.66 71.21
  C 265.68 72.79 263.87 69.45 264.06 64.99
  Q 264.16 62.37 264.21 56.81
  Q 264.21 56.40 264.61 56.40
  L 264.99 56.40
  Q 265.49 56.40 265.52 56.90
  L 266.03 67.26
  Q 266.20 70.75 269.48 70.09
  L 270.52 69.88
  Q 273.80 69.23 273.80 65.88
  Z"
/>
<path fill="#0d0d0c" d="
  M 294.19 70.15
  C 297.43 70.20 298.75 68.31 298.92 65.23
  Q 299.15 61.12 299.20 57.12
  Q 299.21 56.53 299.80 56.53
  L 300.38 56.53
  A 0.57 0.56 90.0 0 1 300.94 57.10
  L 300.94 69.26
  Q 300.94 69.84 300.40 70.01
  C 298.25 70.70 294.56 72.20 292.68 71.32
  Q 289.85 69.99 289.38 67.64
  Q 288.71 64.37 289.36 57.47
  Q 289.41 56.86 290.01 56.77
  L 290.45 56.70
  A 0.64 0.64 0.0 0 1 291.19 57.36
  C 291.04 60.47 290.08 70.09 294.19 70.15
  Z"
/>
<path fill="#ffffff" d="
  M 192.13 62.51
  A 0.24 0.24 0.0 0 1 191.89 62.26
  L 191.89 62.07
  A 4.83 4.25 -89.8 0 1 196.16 57.26
  L 196.30 57.26
  A 4.83 4.25 -89.8 0 1 200.53 62.11
  L 200.53 62.30
  A 0.24 0.24 0.0 0 1 200.29 62.53
  L 192.13 62.51
  Z"
/>
<ellipse fill="#ffffff" cx="0.00" cy="0.00" transform="translate(209.96,63.67) rotate(89.1)" rx="6.47" ry="4.79"/>
<path fill="#ffffff" d="
  M 312.43 62.31
  A 0.27 0.27 0.0 0 1 312.17 62.03
  L 312.17 61.84
  A 4.62 4.51 -88.4 0 1 316.81 57.35
  L 316.81 57.35
  A 4.62 4.51 -88.4 0 1 321.19 62.10
  L 321.18 62.29
  A 0.27 0.27 0.0 0 1 320.91 62.55
  L 312.43 62.31
  Z"
/>
<ellipse fill="#ffffff" cx="0.00" cy="0.00" transform="translate(364.58,63.52) rotate(93.3)" rx="6.33" ry="4.94"/>
<path fill="#ffffff" d="
  M 403.50 62.38
  A 0.41 0.41 0.0 0 1 403.10 61.95
  L 403.12 61.62
  A 4.62 4.34 -88.0 0 1 407.61 57.16
  L 407.93 57.17
  A 4.62 4.34 -88.0 0 1 412.11 61.94
  L 412.10 62.27
  A 0.41 0.41 0.0 0 1 411.67 62.66
  L 403.50 62.38
  Z"
/>
<ellipse fill="#ffffff" cx="0.00" cy="0.00" transform="translate(145.01,63.60) rotate(90.6)" rx="6.18" ry="5.11"/>
<path fill="#ffffff" d="
  M 224.84 64.70
  Q 227.34 63.30 231.51 63.70
  Q 232.01 63.74 232.11 64.23
  Q 233.06 68.59 228.82 69.73
  Q 225.72 70.57 224.08 67.09
  Q 223.34 65.54 224.84 64.70
  Z"
/>
<path fill="#ffffff" d="
  M 321.43 63.73
  A 0.29 0.29 0.0 0 1 321.73 64.01
  L 321.73 64.20
  A 5.66 4.81 89.7 0 1 316.95 69.89
  L 316.65 69.89
  A 5.66 4.81 89.7 0 1 311.81 64.26
  L 311.81 64.07
  A 0.29 0.29 0.0 0 1 312.09 63.77
  L 321.43 63.73
  Z"
/>
<path fill="#ffffff" d="
  M 339.80 63.65
  A 0.42 0.33 -0.4 0 1 340.16 63.94
  Q 340.86 68.53 336.28 69.95
  Q 333.71 70.75 332.53 68.34
  L 332.16 67.57
  Q 331.06 65.33 333.38 64.38
  C 335.23 63.61 337.42 63.37 339.80 63.65
  Z"
/>
<path fill="#ffffff" d="
  M 424.31 64.63
  C 426.05 63.77 428.15 63.39 430.47 63.51
  A 0.41 0.32 -4.3 0 1 430.84 63.76
  Q 431.82 68.15 427.48 69.83
  Q 425.05 70.77 423.75 68.52
  L 423.34 67.80
  Q 422.13 65.70 424.31 64.63
  Z"
/>
<path fill="#ffffff" d="
  M 192.04 63.81
  L 200.94 63.81
  A 0.71 0.71 0.0 0 1 201.59 64.80
  C 200.41 67.60 197.68 71.84 194.08 69.39
  Q 191.45 67.61 191.75 64.07
  A 0.29 0.29 0.0 0 1 192.04 63.81
  Z"
/>
<path fill="#ffffff" d="
  M 410.12 68.84
  C 408.77 69.85 407.93 70.77 406.31 69.85
  Q 403.00 67.97 402.94 64.48
  Q 402.93 63.73 403.50 63.73
  L 411.38 63.79
  Q 414.54 63.82 412.43 66.03
  Q 412.29 66.17 411.68 68.00
  Q 411.52 68.46 411.04 68.51
  Q 410.78 68.53 410.69 68.55
  A 1.56 0.67 -50.3 0 0 410.12 68.84
  Z"
/>
<path fill="#ffffff" d="
  M 8.67 70.94
  A 0.10 0.10 0.0 0 1 8.69 71.08
  L 8.64 71.14
  A 2.79 2.54 36.5 0 1 4.89 71.52
  L 4.77 71.44
  A 2.79 2.54 36.5 0 1 4.04 67.74
  L 4.09 67.68
  A 0.10 0.10 0.0 0 1 4.23 67.66
  L 8.67 70.94
  Z"
/>
<rect fill="#0d0d0c" x="-1.01" y="-2.93" transform="translate(238.98,70.70) rotate(-1.2)" width="2.02" height="5.86" rx="0.56"/>
</svg>
